<?xml version="1.0" encoding="UTF-8"?>
<svg version="1.1" xmlns="http://www.w3.org/2000/svg" width="640" height="403">
<path d="M0 0 C211.2 0 422.4 0 640 0 C640 132.99 640 265.98 640 403 C428.8 403 217.6 403 0 403 C0 270.01 0 137.02 0 0 Z " fill="#FEFDFE" transform="translate(0,0)"/>
<path d="M0 0 C1.20582985 -0.02289345 1.20582985 -0.02289345 2.4360199 -0.04624939 C24.95746761 -0.39391579 45.14648051 0.59860956 65.046875 12.30859375 C65.79582031 12.72625 66.54476562 13.14390625 67.31640625 13.57421875 C68.90539291 14.46430201 70.47887114 15.38204602 72.046875 16.30859375 C72.046875 16.96859375 72.046875 17.62859375 72.046875 18.30859375 C72.58441406 18.39753906 73.12195313 18.48648438 73.67578125 18.578125 C81.02600854 20.8425278 89.01018754 26.73028825 93.046875 33.30859375 C93.1620584 37.10964588 90.49265841 39.59105663 88.046875 42.30859375 C87.28375 42.90671875 86.520625 43.50484375 85.734375 44.12109375 C81.17941229 47.82862154 77.55520327 52.40100211 73.921875 56.99609375 C71.31893361 60.20638813 68.37268145 63.01458122 65.41796875 65.8984375 C60.23498101 71.01185493 55.39288971 76.35931811 50.859375 82.05859375 C50.26125 82.80109375 49.663125 83.54359375 49.046875 84.30859375 C48.11875 85.48421875 48.11875 85.48421875 47.171875 86.68359375 C45.046875 88.30859375 45.046875 88.30859375 42.296875 88.30859375 C38.28412731 87.07390215 34.72403246 85.31516444 31.046875 83.30859375 C31.046875 82.64859375 31.046875 81.98859375 31.046875 81.30859375 C30.25023437 80.92960937 30.25023437 80.92960937 29.4375 80.54296875 C21.79316618 76.59589442 14.4894306 71.83914016 7.703125 66.5625 C5.5868291 64.96030428 3.35864281 63.60896315 1.046875 62.30859375 C1.789375 63.03046875 2.531875 63.75234375 3.296875 64.49609375 C16.046875 77.53586648 16.046875 77.53586648 16.046875 84.30859375 C16.706875 84.30859375 17.366875 84.30859375 18.046875 84.30859375 C20.65675137 96.82201885 21.75949927 109.21353231 17.046875 121.30859375 C16.61181641 122.58863281 16.61181641 122.58863281 16.16796875 123.89453125 C14.06504285 129.75456743 11.39830099 133.88864136 7.046875 138.30859375 C6.304375 139.13359375 5.561875 139.95859375 4.796875 140.80859375 C-8.953125 153.30859375 -8.953125 153.30859375 -15.953125 153.30859375 C-15.953125 153.96859375 -15.953125 154.62859375 -15.953125 155.30859375 C-21.79375562 156.57089128 -27.57272251 156.45603391 -33.515625 156.43359375 C-34.54365234 156.43746094 -35.57167969 156.44132813 -36.63085938 156.4453125 C-37.62537109 156.44402344 -38.61988281 156.44273437 -39.64453125 156.44140625 C-40.99333374 156.43971436 -40.99333374 156.43971436 -42.36938477 156.43798828 C-44.98644252 156.3069252 -47.40085224 155.88738863 -49.953125 155.30859375 C-49.953125 154.64859375 -49.953125 153.98859375 -49.953125 153.30859375 C-51.4071875 153.12296875 -51.4071875 153.12296875 -52.890625 152.93359375 C-53.90125 152.72734375 -54.911875 152.52109375 -55.953125 152.30859375 C-56.448125 151.31859375 -56.448125 151.31859375 -56.953125 150.30859375 C-57.9740625 149.93734375 -57.9740625 149.93734375 -59.015625 149.55859375 C-65.87736986 146.63870232 -70.56657777 142.04584877 -74.7265625 135.9453125 C-75.87172069 134.16281457 -75.87172069 134.16281457 -77.953125 133.30859375 C-78.5859375 131.2421875 -78.5859375 131.2421875 -79.078125 128.74609375 C-79.24570313 127.91980469 -79.41328125 127.09351563 -79.5859375 126.2421875 C-79.70710937 125.60410156 -79.82828125 124.96601563 -79.953125 124.30859375 C-80.613125 124.30859375 -81.273125 124.30859375 -81.953125 124.30859375 C-85.05325083 117.48172091 -85.49491661 111.51031644 -85.453125 104.05859375 C-85.45030518 102.94701904 -85.44748535 101.83544434 -85.44458008 100.69018555 C-85.28194731 92.46120931 -84.19840161 86.44783358 -79.953125 79.30859375 C-79.49164063 78.32375 -79.03015625 77.33890625 -78.5546875 76.32421875 C-74.81120263 69.27551065 -68.43940367 62.94164994 -61.953125 58.30859375 C-60.963125 58.30859375 -59.973125 58.30859375 -58.953125 58.30859375 C-58.953125 57.64859375 -58.953125 56.98859375 -58.953125 56.30859375 C-57.39291633 55.6572445 -55.82983921 55.01276411 -54.265625 54.37109375 C-52.96044922 53.83162109 -52.96044922 53.83162109 -51.62890625 53.28125 C-46.88932706 51.55839566 -42.58846028 51.18709927 -37.55859375 51.2109375 C-35.75551758 51.21577148 -35.75551758 51.21577148 -33.91601562 51.22070312 C-32.67013672 51.22908203 -31.42425781 51.23746094 -30.140625 51.24609375 C-28.87541016 51.25060547 -27.61019531 51.25511719 -26.30664062 51.25976562 C-23.1887539 51.27153124 -20.07096367 51.28797103 -16.953125 51.30859375 C-19.593125 49.98859375 -22.233125 48.66859375 -24.953125 47.30859375 C-24.953125 46.64859375 -24.953125 45.98859375 -24.953125 45.30859375 C-26.273125 44.97859375 -27.593125 44.64859375 -28.953125 44.30859375 C-28.953125 43.64859375 -28.953125 42.98859375 -28.953125 42.30859375 C-29.530625 42.01984375 -30.108125 41.73109375 -30.703125 41.43359375 C-32.78645833 40.39192708 -34.86979167 39.35026042 -36.953125 38.30859375 C-36.953125 37.64859375 -36.953125 36.98859375 -36.953125 36.30859375 C-39.923125 35.81359375 -39.923125 35.81359375 -42.953125 35.30859375 C-42.953125 34.64859375 -42.953125 33.98859375 -42.953125 33.30859375 C-43.66082031 33.04175781 -44.36851562 32.77492187 -45.09765625 32.5 C-48.07251704 31.25877902 -50.82328378 29.81042919 -53.640625 28.24609375 C-57.26989066 26.22601083 -57.26989066 26.22601083 -60.953125 24.30859375 C-60.66259766 22.44018555 -60.66259766 22.44018555 -59.953125 20.30859375 C-57.41151852 18.71194353 -55.02145564 17.40054583 -52.328125 16.12109375 C-51.62816406 15.76595703 -50.92820312 15.41082031 -50.20703125 15.04492188 C-45.74303084 12.8626137 -41.90386296 11.74389486 -36.953125 11.30859375 C-36.953125 10.64859375 -36.953125 9.98859375 -36.953125 9.30859375 C-33.488125 8.81359375 -33.488125 8.81359375 -29.953125 8.30859375 C-29.953125 7.64859375 -29.953125 6.98859375 -29.953125 6.30859375 C-29.35773926 6.16236572 -28.76235352 6.0161377 -28.14892578 5.86547852 C-25.45804804 5.2031369 -22.76808283 4.53716107 -20.078125 3.87109375 C-19.14097656 3.64099609 -18.20382812 3.41089844 -17.23828125 3.17382812 C-16.34238281 2.95146484 -15.44648438 2.72910156 -14.5234375 2.5 C-13.69602051 2.29576416 -12.86860352 2.09152832 -12.01611328 1.88110352 C-7.83063478 0.71957132 -4.43089452 0.07986584 0 0 Z " fill="#4755A3" transform="translate(314.953125,29.69140625)"/>
<path d="M0 0 C1.20582985 -0.02289345 1.20582985 -0.02289345 2.4360199 -0.04624939 C24.95746761 -0.39391579 45.14648051 0.59860956 65.046875 12.30859375 C66.17029297 12.93507813 66.17029297 12.93507813 67.31640625 13.57421875 C68.90539291 14.46430201 70.47887114 15.38204602 72.046875 16.30859375 C72.046875 16.96859375 72.046875 17.62859375 72.046875 18.30859375 C72.58441406 18.39753906 73.12195313 18.48648438 73.67578125 18.578125 C81.02600854 20.8425278 89.01018754 26.73028825 93.046875 33.30859375 C93.1620584 37.10964588 90.49265841 39.59105663 88.046875 42.30859375 C87.28375 42.90671875 86.520625 43.50484375 85.734375 44.12109375 C81.17941229 47.82862154 77.55520327 52.40100211 73.921875 56.99609375 C71.31893361 60.20638813 68.37268145 63.01458122 65.41796875 65.8984375 C60.23498101 71.01185493 55.39288971 76.35931811 50.859375 82.05859375 C50.26125 82.80109375 49.663125 83.54359375 49.046875 84.30859375 C48.428125 85.09234375 47.809375 85.87609375 47.171875 86.68359375 C45.046875 88.30859375 45.046875 88.30859375 42.296875 88.30859375 C38.28412731 87.07390215 34.72403246 85.31516444 31.046875 83.30859375 C31.046875 82.64859375 31.046875 81.98859375 31.046875 81.30859375 C30.25023437 80.92960937 30.25023437 80.92960937 29.4375 80.54296875 C21.78931397 76.59390537 14.48861163 71.83271628 7.6953125 66.55859375 C4.97690008 64.49723836 2.09225409 62.8312833 -0.953125 61.30859375 C-0.953125 60.64859375 -0.953125 59.98859375 -0.953125 59.30859375 C-1.87544922 59.01855469 -1.87544922 59.01855469 -2.81640625 58.72265625 C-3.62464844 58.46226563 -4.43289063 58.201875 -5.265625 57.93359375 C-6.06613281 57.67835937 -6.86664063 57.423125 -7.69140625 57.16015625 C-9.953125 56.30859375 -9.953125 56.30859375 -12.953125 54.30859375 C-12.953125 53.64859375 -12.953125 52.98859375 -12.953125 52.30859375 C-13.819375 52.04046875 -14.685625 51.77234375 -15.578125 51.49609375 C-18.87104464 50.33747388 -21.86440375 48.92649536 -24.953125 47.30859375 C-24.953125 46.64859375 -24.953125 45.98859375 -24.953125 45.30859375 C-26.273125 44.97859375 -27.593125 44.64859375 -28.953125 44.30859375 C-28.953125 43.64859375 -28.953125 42.98859375 -28.953125 42.30859375 C-29.530625 42.01984375 -30.108125 41.73109375 -30.703125 41.43359375 C-32.78645833 40.39192708 -34.86979167 39.35026042 -36.953125 38.30859375 C-36.953125 37.64859375 -36.953125 36.98859375 -36.953125 36.30859375 C-38.933125 35.97859375 -40.913125 35.64859375 -42.953125 35.30859375 C-42.953125 34.64859375 -42.953125 33.98859375 -42.953125 33.30859375 C-43.66082031 33.04175781 -44.36851562 32.77492187 -45.09765625 32.5 C-48.07251704 31.25877902 -50.82328378 29.81042919 -53.640625 28.24609375 C-57.26989066 26.22601083 -57.26989066 26.22601083 -60.953125 24.30859375 C-60.66259766 22.44018555 -60.66259766 22.44018555 -59.953125 20.30859375 C-57.41151852 18.71194353 -55.02145564 17.40054583 -52.328125 16.12109375 C-51.27818359 15.58838867 -51.27818359 15.58838867 -50.20703125 15.04492188 C-45.74303084 12.8626137 -41.90386296 11.74389486 -36.953125 11.30859375 C-36.953125 10.64859375 -36.953125 9.98859375 -36.953125 9.30859375 C-33.488125 8.81359375 -33.488125 8.81359375 -29.953125 8.30859375 C-29.953125 7.64859375 -29.953125 6.98859375 -29.953125 6.30859375 C-29.35773926 6.16236572 -28.76235352 6.0161377 -28.14892578 5.86547852 C-25.45804804 5.2031369 -22.76808283 4.53716107 -20.078125 3.87109375 C-19.14097656 3.64099609 -18.20382812 3.41089844 -17.23828125 3.17382812 C-16.34238281 2.95146484 -15.44648438 2.72910156 -14.5234375 2.5 C-13.69602051 2.29576416 -12.86860352 2.09152832 -12.01611328 1.88110352 C-7.83063478 0.71957132 -4.43089452 0.07986584 0 0 Z " fill="#F95D3F" transform="translate(314.953125,29.69140625)"/>
<path d="M0 0 C3.75914947 0.91686573 6.31539498 2.09879759 9.125 4.6875 C13.06347961 8.27589253 17.49313548 10.70684326 22.109375 13.328125 C25.61698115 15.35684856 28.8290048 17.47761745 32 20 C32 20.66 32 21.32 32 22 C32.721875 22.103125 33.44375 22.20625 34.1875 22.3125 C37.25985448 23.06351998 39.32094129 24.35134849 42 26 C42.70125 26.0825 43.4025 26.165 44.125 26.25 C46 27 46 27 47.4375 30.125 C47.78554688 31.06279297 47.78554688 31.06279297 48.140625 32.01953125 C49.0863926 34.19909567 50.26834506 35.91099184 51.6875 37.8125 C54 41 54 41 54 43 C54.66 43 55.32 43 56 43 C56.2475 43.94875 56.495 44.8975 56.75 45.875 C57.63238524 49.08983049 57.63238524 49.08983049 59.95996094 49.96826172 C62.44099625 51.22303137 62.8288321 52.11121106 63.890625 54.6328125 C65.98498499 59.16786011 68.71668901 62.9261227 71.75 66.875 C77 73.74141221 77 73.74141221 77 76 C77.66 76 78.32 76 79 76 C79.37125 77.423125 79.37125 77.423125 79.75 78.875 C80.62982073 82.08801669 80.62982073 82.08801669 82.94140625 82.94921875 C85.49325838 84.25177705 86.01322003 85.36367002 87.1875 87.9375 C87.51105469 88.62714844 87.83460938 89.31679687 88.16796875 90.02734375 C88.85446708 91.65495717 89.44139411 93.32418233 90 95 C71.52 95 53.04 95 34 95 C29.55311355 87.21794872 29.55311355 87.21794872 28.375 84.1875 C27.22239204 80.97626227 27.22239204 80.97626227 25 79 C24.20742515 76.58177893 23.51202484 74.20844403 22.875 71.75 C22.69324219 71.09386719 22.51148438 70.43773437 22.32421875 69.76171875 C21.26352683 65.75022975 20.80702228 62.14258841 21 58 C20.34 58 19.68 58 19 58 C18.67 59.32 18.34 60.64 18 62 C17 60 17 60 17.55859375 58.14453125 C17.84863281 57.37496094 18.13867188 56.60539062 18.4375 55.8125 C21.74339571 45.35137796 20.12131071 33.75256882 19 23 C18.34 23 17.68 23 17 23 C16.70867187 22.443125 16.41734375 21.88625 16.1171875 21.3125 C11.7759019 13.23060983 7.23532865 6.68490108 0 1 C0 0.67 0 0.34 0 0 Z " fill="#FEB8C8" transform="translate(314,91)"/>
<path d="M0 0 C19.18259714 -0.70191069 19.18259714 -0.70191069 26.94433594 6.27441406 C30.96055351 11.32283709 30.93771042 17.18702992 30.49511719 23.35644531 C29.7909683 27.63964395 28.93213016 29.93023379 25.73730469 32.82910156 C19.62007207 36.97594136 14.14381249 39.22951596 6.69433594 39.14941406 C5.06431641 39.13587891 5.06431641 39.13587891 3.40136719 39.12207031 C2.56992187 39.11046875 1.73847656 39.09886719 0.88183594 39.08691406 C0.89508149 42.18637321 1.05063309 45.09144721 1.88183594 48.08691406 C3.87555418 49.42962227 5.87529214 50.763449 7.88183594 52.08691406 C7.88183594 54.72691406 7.88183594 57.36691406 7.88183594 60.08691406 C-1.68816406 60.08691406 -11.25816406 60.08691406 -21.11816406 60.08691406 C-21.11816406 56.78691406 -21.11816406 53.48691406 -21.11816406 50.08691406 C-18.64316406 49.59191406 -18.64316406 49.59191406 -16.11816406 49.08691406 C-16.11816406 36.87691406 -16.11816406 24.66691406 -16.11816406 12.08691406 C-18.59316406 11.09691406 -18.59316406 11.09691406 -21.11816406 10.08691406 C-21.11816406 7.77691406 -21.11816406 5.46691406 -21.11816406 3.08691406 C-15.04805854 -0.6092393 -6.92974914 0.28434655 0 0 Z " fill="#311551" transform="translate(41.1181640625,260.9130859375)"/>
<path d="M0 0 C1.71123047 -0.00386719 1.71123047 -0.00386719 3.45703125 -0.0078125 C6.1875 0.125 6.1875 0.125 7.1875 1.125 C7.27605161 3.7912603 7.30274673 6.43147114 7.28515625 9.09765625 C7.2837413 9.89529892 7.28232635 10.69294159 7.28086853 11.51475525 C7.27525316 14.07237435 7.26269812 16.62990718 7.25 19.1875 C7.24498698 20.91731645 7.24042373 22.64713426 7.23632812 24.37695312 C7.22527875 28.62633553 7.20800386 32.87565312 7.1875 37.125 C8.57155979 36.21036968 9.91927445 35.24062588 11.25 34.25 C12.00410156 33.71632813 12.75820313 33.18265625 13.53515625 32.6328125 C16.1588617 29.22437933 16.1588617 29.22437933 14.1875 20.125 C21.1175 20.125 28.0475 20.125 35.1875 20.125 C35.1875 28.125 35.1875 28.125 32.5 30.9375 C29.1875 33.125 29.1875 33.125 26.375 34.625 C24.05156136 35.96372839 24.05156136 35.96372839 23.0625 38.3125 C23.25503295 42.6444913 25.53453741 45.7755369 28.1875 49.125 C29.1775 49.62 29.1775 49.62 30.1875 50.125 C30.5175 51.115 30.8475 52.105 31.1875 53.125 C32.8329378 54.81262851 34.50038577 56.4790349 36.1875 58.125 C38.3394437 61.35291555 38.38836443 62.40900809 38.1875 66.125 C35.43585568 66.26017903 32.69085479 66.35915251 29.9375 66.4375 C29.16019531 66.47939453 28.38289063 66.52128906 27.58203125 66.56445312 C23.46496425 66.65242464 21.81640419 66.68541922 18.640625 63.85546875 C17.1875 61.125 17.1875 61.125 17.1875 57.125 C15.7025 56.63 15.7025 56.63 14.1875 56.125 C12.17899811 52.59003667 10.63811611 48.91891905 9.1875 45.125 C8.5275 45.125 7.8675 45.125 7.1875 45.125 C7.25710659 48.85211654 7.41438137 52.47174226 8.1875 56.125 C10.66683197 57.89648372 10.66683197 57.89648372 13.1875 59.125 C13.1875 61.435 13.1875 63.745 13.1875 66.125 C4.2775 66.125 -4.6325 66.125 -13.8125 66.125 C-13.8125 63.155 -13.8125 60.185 -13.8125 57.125 C-11.3375 56.63 -11.3375 56.63 -8.8125 56.125 C-8.8793351 49.75254591 -8.96907474 43.38071338 -9.07495117 37.00878906 C-9.10826091 34.83991886 -9.13627379 32.67096071 -9.15893555 30.50195312 C-9.19237055 27.38894062 -9.24468013 24.2767386 -9.30078125 21.1640625 C-9.30717117 20.190065 -9.3135611 19.2160675 -9.32014465 18.21255493 C-9.34983589 16.86138077 -9.34983589 16.86138077 -9.38012695 15.48291016 C-9.39123001 14.68793121 -9.40233307 13.89295227 -9.41377258 13.07388306 C-9.6570901 10.7201766 -9.6570901 10.7201766 -12.8125 9.125 C-13.22093923 6.41296348 -12.94586867 3.8812858 -12.8125 1.125 C-8.49049071 0.29863707 -4.39842834 -0.01005355 0 0 Z " fill="#361A56" transform="translate(323.8125,254.875)"/>
<path d="M0 0 C0 12.21 0 24.42 0 37 C2.64 34.69 5.28 32.38 8 30 C8.66 30 9.32 30 10 30 C9.67 29.46375 9.34 28.9275 9 28.375 C8 26 8 26 8 20 C14.6 20 21.2 20 28 20 C28 27 28 27 26.3203125 29.21484375 C25.59585938 29.78332031 24.87140625 30.35179687 24.125 30.9375 C23.40570313 31.52402344 22.68640625 32.11054688 21.9453125 32.71484375 C20 34 20 34 18 34 C17.67 34.99 17.34 35.98 17 37 C16.34 37 15.68 37 15 37 C15.94725806 39.84177419 16.73855205 41.73855205 18.875 43.875 C21.10423771 46.10423771 22.48463663 48.4335488 23.9921875 51.1875 C26.67654197 56.39481263 26.67654197 56.39481263 31 60 C31 61.98 31 63.96 31 66 C25.72 66 20.44 66 15 66 C14.67 64.35 14.34 62.7 14 61 C13.34 61 12.68 61 12 61 C12 60.34 12 59.68 12 59 C11.34 59 10.68 59 10 59 C8.5625 56.8828125 8.5625 56.8828125 7 54.125 C4.83255811 50.31116621 4.83255811 50.31116621 2 47 C2 49.97 2 52.94 2 56 C3.32 56.66 4.64 57.32 6 58 C6.04241723 60.33294775 6.04092937 62.66702567 6 65 C5 66 5 66 2.59155273 66.11352539 C1.54942627 66.10828857 0.5072998 66.10305176 -0.56640625 66.09765625 C-1.69111328 66.09443359 -2.81582031 66.09121094 -3.97460938 66.08789062 C-5.15861328 66.07951172 -6.34261719 66.07113281 -7.5625 66.0625 C-8.75037109 66.05798828 -9.93824219 66.05347656 -11.16210938 66.04882812 C-14.10812226 66.03699675 -17.05403681 66.02051287 -20 66 C-20 63.03 -20 60.06 -20 57 C-17.525 56.505 -17.525 56.505 -15 56 C-15.0668351 49.62754591 -15.15657474 43.25571338 -15.26245117 36.88378906 C-15.29576091 34.71491886 -15.32377379 32.54596071 -15.34643555 30.37695312 C-15.37987055 27.26394062 -15.43218013 24.1517386 -15.48828125 21.0390625 C-15.49467117 20.065065 -15.5010611 19.0910675 -15.50764465 18.08755493 C-15.53733589 16.73638077 -15.53733589 16.73638077 -15.56762695 15.35791016 C-15.57873001 14.56293121 -15.58983307 13.76795227 -15.60127258 12.94888306 C-15.8445901 10.5951766 -15.8445901 10.5951766 -19 9 C-19.40843923 6.28796348 -19.13336867 3.7562858 -19 1 C-12.43686385 -0.19329748 -6.96308479 0 0 0 Z " fill="#331753" transform="translate(487,255)"/>
<path d="M0 0 C0.84175781 -0.00322266 1.68351562 -0.00644531 2.55078125 -0.00976562 C6.89699617 0.02787876 10.65877824 0.06244127 14.5 2.3125 C16.484375 4.3359375 16.484375 4.3359375 18.25 6.6875 C18.84296875 7.45835937 19.4359375 8.22921875 20.046875 9.0234375 C23.83648311 14.99308898 22.93573144 22.49641533 22.5 29.3125 C21.40604561 34.04224398 18.8062667 37.79292577 15.5 41.3125 C14.84 41.3125 14.18 41.3125 13.5 41.3125 C13.5 41.9725 13.5 42.6325 13.5 43.3125 C7.97318463 46.0869466 3.58717542 46.80641904 -2.5625 46.75 C-3.72749023 46.7799707 -3.72749023 46.7799707 -4.91601562 46.81054688 C-10.2337142 46.80604417 -13.29104878 45.83520917 -17.5 42.3125 C-18.6875 40.1875 -18.6875 40.1875 -19.5 38.3125 C-20.49 37.6525 -21.48 36.9925 -22.5 36.3125 C-23.55272962 32.11368186 -23.63510259 28.00130458 -23.625 23.6875 C-23.62757812 22.58148438 -23.63015625 21.47546875 -23.6328125 20.3359375 C-23.5214448 17.8006845 -23.24088772 15.72332513 -22.5 13.3125 C-21.84 13.3125 -21.18 13.3125 -20.5 13.3125 C-20.438125 12.590625 -20.37625 11.86875 -20.3125 11.125 C-19.02484831 6.66774415 -15.98122929 4.47353875 -12.421875 1.68359375 C-8.25861708 -0.27002059 -4.53913262 -0.08688998 0 0 Z " fill="#351955" transform="translate(98.5,274.6875)"/>
<path d="M0 0 C0.84949219 0.00966797 1.69898438 0.01933594 2.57421875 0.02929688 C6.10191782 0.09338619 8.87697329 0.18815776 12.25 1.3125 C12.25 1.9725 12.25 2.6325 12.25 3.3125 C12.848125 3.415625 13.44625 3.51875 14.0625 3.625 C17.67989031 4.7618941 18.88554971 6.7144046 20.828125 9.90234375 C22.55918034 14.05402318 22.59368305 17.25830894 22.4375 21.6875 C22.41719727 22.79158203 22.41719727 22.79158203 22.39648438 23.91796875 C22.36144869 25.71646743 22.30765288 27.51458422 22.25 29.3125 C21.59 29.3125 20.93 29.3125 20.25 29.3125 C19.92 31.9525 19.59 34.5925 19.25 37.3125 C18.59 37.3125 17.93 37.3125 17.25 37.3125 C17.023125 37.910625 16.79625 38.50875 16.5625 39.125 C14.8834036 41.92349401 13.11804895 42.81018865 10.25 44.3125 C9.69570313 44.66183594 9.14140625 45.01117188 8.5703125 45.37109375 C2.645848 47.77479063 -6.56573012 47.44458462 -12.5078125 45.33203125 C-16.16970398 43.13624762 -18.01788081 41.24760573 -19.75 37.3125 C-20.41 37.3125 -21.07 37.3125 -21.75 37.3125 C-24.75678867 28.29213399 -23.72820626 16.33005042 -19.625 7.8671875 C-19.33625 7.35414063 -19.0475 6.84109375 -18.75 6.3125 C-18.09 6.3125 -17.43 6.3125 -16.75 6.3125 C-16.75 5.6525 -16.75 4.9925 -16.75 4.3125 C-11.00098322 0.37364661 -6.88555041 -0.23945113 0 0 Z " fill="#2F1250" transform="translate(442.75,274.6875)"/>
<path d="M0 0 C0.84949219 0.00966797 1.69898438 0.01933594 2.57421875 0.02929688 C6.10191782 0.09338619 8.87697329 0.18815776 12.25 1.3125 C12.25 1.9725 12.25 2.6325 12.25 3.3125 C12.848125 3.60125 13.44625 3.89 14.0625 4.1875 C19.03761062 6.74612832 19.03761062 6.74612832 20.421875 10.4375 C21.2802511 14.45405232 21.54694409 18.22836406 21.5 22.3125 C21.51160156 23.32183594 21.51160156 23.32183594 21.5234375 24.3515625 C21.50525057 29.06197618 20.70200533 32.88734089 19.25 37.3125 C18.59 37.3125 17.93 37.3125 17.25 37.3125 C16.92 38.3025 16.59 39.2925 16.25 40.3125 C13.38786946 44.12867405 8.7228727 45.85639493 4.15332031 46.69921875 C-2.47585517 47.37852302 -9.04910606 47.69309796 -15.07421875 44.61328125 C-19.83414467 40.63162059 -22.89244246 36.73454658 -23.6484375 30.4921875 C-23.68195313 29.77289063 -23.71546875 29.05359375 -23.75 28.3125 C-23.8325 27.013125 -23.915 25.71375 -24 24.375 C-23.80665038 17.94290259 -23.21723518 11.21858196 -18.75 6.3125 C-18.09 6.3125 -17.43 6.3125 -16.75 6.3125 C-16.75 5.6525 -16.75 4.9925 -16.75 4.3125 C-11.00098322 0.37364661 -6.88555041 -0.23945113 0 0 Z " fill="#311451" transform="translate(238.75,274.6875)"/>
<path d="M0 0 C3.46092901 2.89752196 5.4951203 4.62781076 6.04052734 9.22680664 C6.03206787 10.9263147 6.03206787 10.9263147 6.0234375 12.66015625 C6.03632812 13.89701172 6.04921875 15.13386719 6.0625 16.40820312 C6.0625 19.01498567 6.05466391 21.62177977 6.0390625 24.22851562 C6.05453125 25.46408203 6.07 26.69964844 6.0859375 27.97265625 C6.08255371 29.10453369 6.07916992 30.23641113 6.07568359 31.40258789 C6.27758301 32.34223389 6.47948242 33.28187988 6.6875 34.25 C7.52490723 34.70947021 8.36231445 35.16894043 9.22509766 35.64233398 C10.03769043 36.17286377 10.8502832 36.70339355 11.6875 37.25 C11.6875 39.89 11.6875 42.53 11.6875 45.25 C3.4375 45.25 -4.8125 45.25 -13.3125 45.25 C-13.3125 42.28 -13.3125 39.31 -13.3125 36.25 C-10.8375 35.755 -10.8375 35.755 -8.3125 35.25 C-8.3125 27.33 -8.3125 19.41 -8.3125 11.25 C-15.2425 10.755 -15.2425 10.755 -22.3125 10.25 C-22.3125 18.5 -22.3125 26.75 -22.3125 35.25 C-20.3325 35.91 -18.3525 36.57 -16.3125 37.25 C-16.3125 39.89 -16.3125 42.53 -16.3125 45.25 C-24.8925 45.25 -33.4725 45.25 -42.3125 45.25 C-42.3125 42.28 -42.3125 39.31 -42.3125 36.25 C-39.8375 35.755 -39.8375 35.755 -37.3125 35.25 C-37.6425 27.33 -37.9725 19.41 -38.3125 11.25 C-39.6325 10.59 -40.9525 9.93 -42.3125 9.25 C-42.41015625 3.09765625 -42.41015625 3.09765625 -42.3125 1.25 C-39.85674425 -1.20575575 -34.45058186 -0.74724525 -31.1796875 -0.8125 C-28.22328895 -0.8125 -25.26855356 -0.79368552 -22.3125 -0.75 C-22.3125 -0.09 -22.3125 0.57 -22.3125 1.25 C-21.260625 0.92515625 -21.260625 0.92515625 -20.1875 0.59375 C-6.48694472 -3.42706514 -6.48694472 -3.42706514 0 0 Z " fill="#351955" transform="translate(607.3125,275.75)"/>
<path d="M0 0 C18.48 0 36.96 0 56 0 C56 6.27 56 12.54 56 19 C53.69 19 51.38 19 49 19 C49 18.34 49 17.68 49 17 C48.01 16.67 47.02 16.34 46 16 C45.5875 15.34 45.175 14.68 44.75 14 C42.21724719 11.10542536 39.70886221 11.41019674 36 11 C35.99466289 16.03632812 36.02832237 21.07034638 36.09765625 26.10620117 C36.11578975 27.81803556 36.12338953 29.53001605 36.12011719 31.24194336 C36.11725216 33.70801213 36.15264101 36.17106824 36.1953125 38.63671875 C36.18621857 39.39836838 36.17712463 40.16001801 36.16775513 40.94474792 C36.17367708 43.42864422 36.17367708 43.42864422 37 47 C38.98606726 48.68324526 40.98553484 50.35084631 43 52 C43 54.31 43 56.62 43 59 C33.1 59 23.2 59 13 59 C13 55.7 13 52.4 13 49 C16.465 48.505 16.465 48.505 20 48 C20 35.79 20 23.58 20 11 C10.86985924 12.69778822 10.86985924 12.69778822 7 19 C4.69 19 2.38 19 0 19 C0 12.73 0 6.46 0 0 Z " fill="#2E114F" transform="translate(364,262)"/>
<path d="M0 0 C8.91 0 17.82 0 27 0 C27 2.97 27 5.94 27 9 C25.35 9.33 23.7 9.66 22 10 C22 22.21 22 34.42 22 47 C25.63 47 29.26 47 33 47 C33.66 45.68 34.32 44.36 35 43 C36.125 41.25 36.125 41.25 38 40 C40.71815286 39.7470234 43.25911949 39.8652026 46 40 C46.02779013 41.47905232 46.04673956 42.95827058 46.0625 44.4375 C46.07410156 45.26121094 46.08570313 46.08492188 46.09765625 46.93359375 C45.96909904 50.97029023 45.44600456 54.98595897 45 59 C30.15 59 15.3 59 0 59 C0 55.7 0 52.4 0 49 C2.97 48.505 2.97 48.505 6 48 C5.67 35.46 5.34 22.92 5 10 C3.35 9.67 1.7 9.34 0 9 C0 6.03 0 3.06 0 0 Z " fill="#2E114F" transform="translate(164,262)"/>
<path d="M0 0 C1.051875 0.45375 2.10375 0.9075 3.1875 1.375 C7.49694802 5.39715148 8.17207517 10.29167615 9 16 C9.04156146 17.99956811 9.05371196 20.00072137 9 22 C0.52231632 24.52526748 -7.09888594 26.28257505 -16 26 C-15.67 27.98 -15.34 29.96 -15 32 C-8.38887206 34.20370931 -0.77840295 33.20504941 6 32 C6.495 35.96 6.495 35.96 7 40 C6.34 40 5.68 40 5 40 C4.7525 40.639375 4.505 41.27875 4.25 41.9375 C3 44 3 44 1.19067383 44.60961914 C-2.6339494 45.29117186 -6.43556881 45.35134597 -10.3125 45.4375 C-11.14201172 45.48326172 -11.97152344 45.52902344 -12.82617188 45.57617188 C-18.63043877 45.68153741 -21.57925217 44.47763533 -25.80932617 40.49243164 C-27 39 -27 39 -27 37 C-27.66 37 -28.32 37 -29 37 C-29 36.34 -29 35.68 -29 35 C-29.66 35 -30.32 35 -31 35 C-32.78790967 31.42418065 -32.27024209 27.31343757 -32.3125 23.375 C-32.34150391 22.49714844 -32.37050781 21.61929687 -32.40039062 20.71484375 C-32.46159664 14.37766698 -31.22600104 10.45938638 -28 5 C-27.34 5 -26.68 5 -26 5 C-26 4.34 -26 3.68 -26 3 C-17.54518138 -1.94527127 -9.46086718 -4.30039417 0 0 Z " fill="#321552" transform="translate(551,276)"/>
<path d="M0 0 C0 3.3 0 6.6 0 10 C4.95 10 9.9 10 15 10 C15.09765625 17.71484375 15.09765625 17.71484375 15 20 C14 21 14 21 11.05859375 21.09765625 C7.70572917 21.06510417 4.35286458 21.03255208 1 21 C1.33 28.59 1.66 36.18 2 44 C6.29 44.33 10.58 44.66 15 45 C15 48.3 15 51.6 15 55 C11.24737357 56.87631321 6.75497651 56.27120023 2.625 56.3125 C1.6659375 56.34150391 0.706875 56.37050781 -0.28125 56.40039062 C-7.30981058 56.46401966 -7.30981058 56.46401966 -10.5390625 54.29296875 C-13.46143247 49.70625439 -14.2467542 46.03256794 -14.1953125 40.60546875 C-14.18886719 39.40341797 -14.18242187 38.20136719 -14.17578125 36.96289062 C-14.15902344 35.71701172 -14.14226562 34.47113281 -14.125 33.1875 C-14.11597656 31.92228516 -14.10695312 30.65707031 -14.09765625 29.35351562 C-14.07412394 26.23548436 -14.04124545 23.11783903 -14 20 C-15.98 20 -17.96 20 -20 20 C-20.61092342 13.76858108 -20.61092342 13.76858108 -18.0625 10.5625 C-16.5465625 9.2940625 -16.5465625 9.2940625 -15 8 C-14.29875 7.31164062 -13.5975 6.62328125 -12.875 5.9140625 C-12.111875 5.17929687 -11.34875 4.44453125 -10.5625 3.6875 C-9.84191406 2.99011719 -9.12132812 2.29273438 -8.37890625 1.57421875 C-5.40679364 -0.39254871 -3.49425112 -0.29663427 0 0 Z " fill="#341854" transform="translate(144,265)"/>
<path d="M0 0 C0.76828125 0.00128906 1.5365625 0.00257813 2.328125 0.00390625 C7.22382719 0.07884047 11.35541472 0.83092245 16 2.375 C16.02701408 4.47909639 16.04640223 6.58329178 16.0625 8.6875 C16.07410156 9.85925781 16.08570313 11.03101563 16.09765625 12.23828125 C16 15.375 16 15.375 15 18.375 C12.36 18.375 9.72 18.375 7 18.375 C6.525625 17.405625 6.05125 16.43625 5.5625 15.4375 C4.29806053 12.57022563 4.29806053 12.57022563 3 11.375 C1.12678052 11.21446185 1.12678052 11.21446185 -1 11.25 C-1.721875 11.24742187 -2.44375 11.24484375 -3.1875 11.2421875 C-5.02089415 11.17804724 -5.02089415 11.17804724 -6 12.375 C-6.08669432 13.8637186 -6.10703494 15.356445 -6.09765625 16.84765625 C-6.09443359 17.74677734 -6.09121094 18.64589844 -6.08789062 19.57226562 C-6.07951172 20.51779297 -6.07113281 21.46332031 -6.0625 22.4375 C-6.05798828 23.38689453 -6.05347656 24.33628906 -6.04882812 25.31445312 C-6.0370011 27.66803065 -6.02052025 30.02148477 -6 32.375 C-4.515 32.87 -4.515 32.87 -3 33.375 C-3 34.035 -3 34.695 -3 35.375 C2.5027661 35.59511064 6.77580171 35.31888773 12 33.375 C13.32 33.375 14.64 33.375 16 33.375 C16.495 37.83 16.495 37.83 17 42.375 C10.80159201 46.11743501 5.41731932 46.83418683 -1.6875 46.9375 C-2.50710205 46.96392578 -3.3267041 46.99035156 -4.17114258 47.01757812 C-8.41938786 46.99340849 -11.20050231 46.66035157 -14.58203125 43.96484375 C-17 41.375 -17 41.375 -17 39.375 C-17.99 39.045 -18.98 38.715 -20 38.375 C-22.74246418 34.75494729 -22.29523706 30.46021799 -22.25 26.125 C-22.25773437 25.39925781 -22.26546875 24.67351562 -22.2734375 23.92578125 C-22.25508161 18.77695444 -21.4113421 14.32589848 -20 9.375 C-19.34 9.375 -18.68 9.375 -18 9.375 C-17.7215625 8.26125 -17.7215625 8.26125 -17.4375 7.125 C-13.82462628 0.2134155 -6.9891756 -0.22280929 0 0 Z " fill="#2F1250" transform="translate(289,274.625)"/>
<path d="M0 0 C3.75914947 0.91686573 6.31539498 2.09879759 9.125 4.6875 C13.06347961 8.27589253 17.49313548 10.70684326 22.109375 13.328125 C25.61698115 15.35684856 28.8290048 17.47761745 32 20 C32 20.66 32 21.32 32 22 C32.721875 22.061875 33.44375 22.12375 34.1875 22.1875 C37.84657625 23.24456647 39.49211602 25.20550071 42 28 C38.57009092 30.28660605 35.22073474 31.60255148 31.3125 32.875 C28.49274451 34.24677294 28.14340658 35.14148354 27 38 C25.47396404 40.67056293 24.17877079 42.82122921 22 45 C22 41.04 22 37.08 22 33 C21.34 33 20.68 33 20 33 C19.505 28.05 19.505 28.05 19 23 C18.34 23 17.68 23 17 23 C16.70867187 22.443125 16.41734375 21.88625 16.1171875 21.3125 C11.7759019 13.23060983 7.23532865 6.68490108 0 1 C0 0.67 0 0.34 0 0 Z " fill="#FCF8F9" transform="translate(314,91)"/>
<path d="M0 0 C12.625 -0.125 12.625 -0.125 16 1 C16.70400221 5.06756833 17.02920508 8.03020896 16 12 C16.66 12.66 17.32 13.32 18 14 C18.41702384 17.96172649 17.86870807 19.26258387 16 23 C10.72 23 5.44 23 0 23 C0 15.41 0 7.82 0 0 Z " fill="#4D3569" transform="translate(75,350)"/>
<path d="M0 0 C4.54011279 2.70474804 4.54011279 2.70474804 5.6171875 5.73828125 C6.1116718 8.6597752 6.17037369 11.47464806 6.1875 14.4375 C6.20167969 15.54996094 6.21585938 16.66242188 6.23046875 17.80859375 C6.00247902 20.96567188 5.34441009 23.15707747 4 26 C-4.10891089 26.62376238 -4.10891089 26.62376238 -7.5 24.25 C-9.7457714 20.88134289 -10.12791882 17.88528478 -10.09765625 13.890625 C-10.09443359 13.13652344 -10.09121094 12.38242187 -10.08789062 11.60546875 C-10.07951172 10.82816406 -10.07113281 10.05085938 -10.0625 9.25 C-10.05798828 8.45722656 -10.05347656 7.66445313 -10.04882812 6.84765625 C-10.03708565 4.89840492 -10.01915146 2.94919262 -10 1 C-6.79337112 -0.60331444 -3.47896647 -0.48652213 0 0 Z " fill="#EFEDF2" transform="translate(240,285)"/>
<path d="M0 0 C3.39251017 2.41046776 4.95733772 5.00312791 6 9 C6.49499588 15.06369959 5.99540167 20.26322021 4 26 C2.56344146 26.08131463 1.1255517 26.13933559 -0.3125 26.1875 C-1.51326172 26.23970703 -1.51326172 26.23970703 -2.73828125 26.29296875 C-5 26 -5 26 -6.79296875 24.67578125 C-8 23 -8 23 -8 20 C-8.66 20 -9.32 20 -10 20 C-10 13.73 -10 7.46 -10 1 C-6.80040587 -0.59979706 -3.4725169 -0.49607384 0 0 Z " fill="#F0EEF2" transform="translate(444,285)"/>
<path d="M0 0 C4.66683625 -0.45753297 7.93837941 -0.63642723 12.04296875 1.82421875 C14.90468982 6.46808946 14.54547112 10.47566933 14.3125 15.8125 C14.27866211 17.28106445 14.27866211 17.28106445 14.24414062 18.77929688 C14.18539727 21.18777455 14.10332129 23.59309078 14 26 C6.296875 27.078125 6.296875 27.078125 3.625 26.375 C1.2973034 24.40541057 0.8774472 22.96138429 0 20 C-0.23930877 16.5583717 -0.18835095 13.13525346 -0.125 9.6875 C-0.11597656 8.75615234 -0.10695313 7.82480469 -0.09765625 6.86523438 C-0.07418263 4.5765564 -0.04134729 2.28841328 0 0 Z " fill="#F4F3F6" transform="translate(91,285)"/>
<path d="M0 0 C0 6.6 0 13.2 0 20 C-0.66 20 -1.32 20 -2 20 C-2.66 21.32 -3.32 22.64 -4 24 C-7.3 24 -10.6 24 -14 24 C-14.66 22.68 -15.32 21.36 -16 20 C-15.01 20 -14.02 20 -13 20 C-13 20.66 -13 21.32 -13 22 C-9.535 21.505 -9.535 21.505 -6 21 C-5.34 19.35 -4.68 17.7 -4 16 C-4.66 16 -5.32 16 -6 16 C-6 16.66 -6 17.32 -6 18 C-9.85149295 18.30207788 -12.40983272 18.27624851 -15.9375 16.625 C-18.65726583 13.16347985 -18.55985665 10.73403989 -18.56640625 6.4375 C-16.44825476 -2.6778554 -7.32384189 -0.2712534 0 0 Z " fill="#7C6A91" transform="translate(163,355)"/>
<path d="M0 0 C0.99 0 1.98 0 3 0 C3.33 2.31 3.66 4.62 4 7 C4.60328125 6.93039062 5.2065625 6.86078125 5.828125 6.7890625 C8.3274418 6.61975394 10.5256683 6.59116034 13 7 C15.89697697 9.96763494 16.81804164 12.00933779 17.5625 16.0625 C16.81051147 19.98955121 14.98821144 21.44908779 12 24 C11.67 24.33 11.34 24.66 11 25 C9.00047242 25.04346799 6.99960012 25.039992 5 25 C4.01 25 3.02 25 2 25 C1.01 25 0.02 25 -1 25 C-1.02886984 21.02084841 -1.04675406 17.04172347 -1.0625 13.0625 C-1.07087891 11.92619141 -1.07925781 10.78988281 -1.08789062 9.61914062 C-1.09111328 8.53955078 -1.09433594 7.45996094 -1.09765625 6.34765625 C-1.10289307 5.34742432 -1.10812988 4.34719238 -1.11352539 3.31665039 C-1 1 -1 1 0 0 Z " fill="#6E5984" transform="translate(268,348)"/>
<path d="M0 0 C0.66 0 1.32 0 2 0 C2 2.64 2 5.28 2 8 C2.66 7.67 3.32 7.34 4 7 C11.08571429 6.42857143 11.08571429 6.42857143 14.5 8.5625 C16.55402253 11.90028661 16.41314312 14.14399755 16 18 C15 20.4375 15 20.4375 14 22 C13.34 22 12.68 22 12 22 C12 22.66 12 23.32 12 24 C7.71 24 3.42 24 -1 24 C-1.02682792 20.18745377 -1.04675477 16.37509388 -1.0625 12.5625 C-1.07087891 11.47388672 -1.07925781 10.38527344 -1.08789062 9.26367188 C-1.09111328 8.22919922 -1.09433594 7.19472656 -1.09765625 6.12890625 C-1.10289307 5.17056885 -1.10812988 4.21223145 -1.11352539 3.22485352 C-1 1 -1 1 0 0 Z " fill="#5A4374" transform="translate(507,349)"/>
<path d="M0 0 C4.8828125 0.24414062 4.8828125 0.24414062 9.765625 0.48828125 C9.765625 6.42828125 9.765625 12.36828125 9.765625 18.48828125 C8.445625 18.15828125 7.125625 17.82828125 5.765625 17.48828125 C4.651875 17.71515625 3.538125 17.94203125 2.390625 18.17578125 C-1.234375 18.48828125 -1.234375 18.48828125 -4.671875 17.11328125 C-7.85683491 13.85063939 -7.88177928 12.19785819 -7.8359375 7.8046875 C-6.63954099 3.19778404 -4.77775452 0.72127937 0 0 Z " fill="#6F5C86" transform="translate(489.234375,354.51171875)"/>
<path d="M0 0 C5.42144004 0.68843683 5.42144004 0.68843683 7.9375 2.5 C9.19987731 5.02475462 9.03606404 6.81200466 9 9.625 C8.99097656 10.53507812 8.98195312 11.44515625 8.97265625 12.3828125 C8.96105469 13.08148438 8.94945312 13.78015625 8.9375 14.5 C7.2875 15.16 5.6375 15.82 3.9375 16.5 C3.9375 17.16 3.9375 17.82 3.9375 18.5 C1.2975 18.5 -1.3425 18.5 -4.0625 18.5 C-4.7225 17.18 -5.3825 15.86 -6.0625 14.5 C-6.7225 14.5 -7.3825 14.5 -8.0625 14.5 C-9.51397903 11.59704195 -9.43489025 9.72738221 -9.0625 6.5 C-6.61575983 2.37112597 -4.86074733 0.12719713 0 0 Z " fill="#78658D" transform="translate(206.0625,354.5)"/>
<path d="M0 0 C4.6552625 0.81671272 6.52627604 1.9963421 9.5625 5.625 C10.04981247 8.69250377 9.92443496 11.54855285 9.5625 14.625 C7.9125 15.285 6.2625 15.945 4.5625 16.625 C4.5625 17.285 4.5625 17.945 4.5625 18.625 C1.9225 18.625 -0.7175 18.625 -3.4375 18.625 C-3.4375 17.965 -3.4375 17.305 -3.4375 16.625 C-4.4275 16.295 -5.4175 15.965 -6.4375 15.625 C-6.4375 14.635 -6.4375 13.645 -6.4375 12.625 C-7.0975 12.625 -7.7575 12.625 -8.4375 12.625 C-8.8581933 8.33392835 -8.89293836 6.27365463 -6.375 2.6875 C-3.4375 0.625 -3.4375 0.625 0 0 Z " fill="#604A79" transform="translate(376.4375,354.375)"/>
<path d="M0 0 C6.29675193 0 7.98289872 0.06316023 13 3 C13.02684679 5.64590014 13.04676357 8.29153096 13.0625 10.9375 C13.07087891 11.69224609 13.07925781 12.44699219 13.08789062 13.22460938 C13.09652441 15.14994313 13.05224333 17.07535581 13 19 C12 20 12 20 9.27734375 20.09765625 C6.18489583 20.06510417 3.09244792 20.03255208 0 20 C0 13.4 0 6.8 0 0 Z " fill="#EAE7ED" transform="translate(42,271)"/>
<path d="M0 0 C1.216875 0.12375 2.43375 0.2475 3.6875 0.375 C3.6875 1.035 3.6875 1.695 3.6875 2.375 C5.0075 2.375 6.3275 2.375 7.6875 2.375 C9.1658226 5.33164519 8.74782783 8.11729737 8.6875 11.375 C4.3975 11.375 0.1075 11.375 -4.3125 11.375 C-3.9825 12.365 -3.6525 13.355 -3.3125 14.375 C-1.0025 14.705 1.3075 15.035 3.6875 15.375 C4.0175 14.385 4.3475 13.395 4.6875 12.375 C5.6775 12.375 6.6675 12.375 7.6875 12.375 C7.375 14.25 7.375 14.25 6.6875 16.375 C2.9501144 18.8665904 1.11418417 18.83293285 -3.3125 18.375 C-6.06579021 16.57937595 -7.83877461 15.32245078 -9.3125 12.375 C-9.87131444 8.27702743 -9.4495529 6.60627677 -7.3125 3 C-4.21291884 0.28786648 -3.81521854 0 0 0 Z " fill="#847397" transform="translate(298.3125,354.625)"/>
<path d="M0 0 C1.8671875 0.1875 1.8671875 0.1875 4 1 C5.1953125 3.25 5.1953125 3.25 6.125 6 C7.15532298 9.76393192 7.15532298 9.76393192 10 12 C10.1546875 10.4221875 10.1546875 10.4221875 10.3125 8.8125 C10.98157825 5.10215698 11.6824713 2.94147873 14 0 C14.99 0 15.98 0 17 0 C16.125 5.75 16.125 5.75 15 8 C14.34 8 13.68 8 13 8 C12.67 10.31 12.34 12.62 12 15 C11.34 15 10.68 15 10 15 C9.34 17.97 8.68 20.94 8 24 C6.68 24.33 5.36 24.66 4 25 C4.04640625 24.24976563 4.0928125 23.49953125 4.140625 22.7265625 C4.37647243 16.03860331 3.74387996 11.1250795 0.875 5.05859375 C0 3 0 3 0 0 Z " fill="#493066" transform="translate(177,355)"/>
<path d="M0 0 C18.48 0 36.96 0 56 0 C56 6.27 56 12.54 56 19 C53.69 19 51.38 19 49 19 C49 18.34 49 17.68 49 17 C48.01 16.67 47.02 16.34 46 16 C45.505 14.515 45.505 14.515 45 13 C45.66 13 46.32 13 47 13 C47.433125 13.474375 47.86625 13.94875 48.3125 14.4375 C50.24772072 16.50221461 50.24772072 16.50221461 55 17 C54.67 11.72 54.34 6.44 54 1 C36.84 1 19.68 1 2 1 C2 6.28 2 11.56 2 17 C3.65 17 5.3 17 7 17 C7 17.66 7 18.32 7 19 C4.69 19 2.38 19 0 19 C0 12.73 0 6.46 0 0 Z " fill="#5F4978" transform="translate(364,262)"/>
<path d="M0 0 C0.99 0 1.98 0 3 0 C3.33 1.98 3.66 3.96 4 6 C6.31 6 8.62 6 11 6 C11 6.66 11 7.32 11 8 C12.32 8.33 13.64 8.66 15 9 C15 13.95 15 18.9 15 24 C13.68 24 12.36 24 11 24 C10.67 19.38 10.34 14.76 10 10 C7.03 9.505 7.03 9.505 4 9 C4 9.66 4 10.32 4 11 C3.34 11 2.68 11 2 11 C2 14.96 2 18.92 2 23 C1.34 23 0.68 23 0 23 C0 15.41 0 7.82 0 0 Z " fill="#75628B" transform="translate(416,349)"/>
<path d="M0 0 C1.32 0.33 2.64 0.66 4 1 C4.33 0.67 4.66 0.34 5 0 C8.75913215 -0.51260893 10.57908641 -0.24705798 13.875 1.6875 C17.1789229 6.83773276 16.39240655 12.04414061 16 18 C14.68 18 13.36 18 12 18 C11.67 13.05 11.34 8.1 11 3 C8.69 3.66 6.38 4.32 4 5 C3.67 9.29 3.34 13.58 3 18 C2.01 18 1.02 18 0 18 C0 12.06 0 6.12 0 0 Z " fill="#705D87" transform="translate(124,355)"/>
<path d="M0 0 C6.27586207 -0.48275862 6.27586207 -0.48275862 9.4375 1.625 C11 4 11 4 11 10 C7.04 10 3.08 10 -1 10 C-0.67 10.99 -0.34 11.98 0 13 C2.31 13.33 4.62 13.66 7 14 C7.33 13.01 7.66 12.02 8 11 C8.99 11 9.98 11 11 11 C10.6875 12.875 10.6875 12.875 10 15 C6.51195905 17.32536063 5.09859246 17.33457898 1 17 C-2.7 15.6 -2.7 15.6 -4 13 C-4.06950541 11.45976004 -4.08452357 9.91665012 -4.0625 8.375 C-4.05347656 7.55773437 -4.04445313 6.74046875 -4.03515625 5.8984375 C-4.02355469 5.27195312 -4.01195312 4.64546875 -4 4 C-3.34 3.67 -2.68 3.34 -2 3 C-2 4.32 -2 5.64 -2 7 C1.3 7 4.6 7 8 7 C7.34 5.68 6.68 4.36 6 3 C2.43793339 2.18129815 2.43793339 2.18129815 -1 2 C-0.67 1.34 -0.34 0.68 0 0 Z " fill="#422860" transform="translate(442,356)"/>
<path d="M0 0 C2.73255991 0.06447056 3.77132266 0.11231558 6.0625 1.6875 C7.0625 3.3125 7.0625 3.3125 7.0625 5.3125 C6.0725 5.3125 5.0825 5.3125 4.0625 5.3125 C4.0625 4.6525 4.0625 3.9925 4.0625 3.3125 C1.7525 3.3125 -0.5575 3.3125 -2.9375 3.3125 C-2.9375 4.6325 -2.9375 5.9525 -2.9375 7.3125 C-2.29941406 7.44527344 -1.66132813 7.57804687 -1.00390625 7.71484375 C0.23552734 7.97974609 0.23552734 7.97974609 1.5 8.25 C2.32371094 8.42402344 3.14742188 8.59804688 3.99609375 8.77734375 C6.0625 9.3125 6.0625 9.3125 7.0625 10.3125 C7.29779412 15.84191176 7.29779412 15.84191176 6.0625 18.3125 C4.6254191 18.36672947 3.18774538 18.40539723 1.75 18.4375 C0.54923828 18.47230469 0.54923828 18.47230469 -0.67578125 18.5078125 C-2.9375 18.3125 -2.9375 18.3125 -5.9375 16.3125 C-5.9375 14.9925 -5.9375 13.6725 -5.9375 12.3125 C-4.9475 12.6425 -3.9575 12.9725 -2.9375 13.3125 C-2.9375 13.9725 -2.9375 14.6325 -2.9375 15.3125 C-0.2975 15.3125 2.3425 15.3125 5.0625 15.3125 C4.3965424 12.14659094 4.3965424 12.14659094 1.77734375 11.14453125 C0.86082031 10.80808594 -0.05570312 10.47164063 -1 10.125 C-2.37865234 9.60873047 -2.37865234 9.60873047 -3.78515625 9.08203125 C-4.49542969 8.82808594 -5.20570313 8.57414062 -5.9375 8.3125 C-6.0625 5.4375 -6.0625 5.4375 -5.9375 2.3125 C-3.9375 0.3125 -3.9375 0.3125 0 0 Z " fill="#543D6F" transform="translate(317.9375,354.6875)"/>
<path d="M0 0 C-0.598125 0.28875 -1.19625 0.5775 -1.8125 0.875 C-5.97702582 2.95202506 -5.97702582 2.95202506 -8 7 C-4.37 7 -0.74 7 3 7 C3 6.01 3 5.02 3 4 C3.66 4 4.32 4 5 4 C5.33 5.65 5.66 7.3 6 9 C1.38 9 -3.24 9 -8 9 C-7.34 10.32 -6.68 11.64 -6 13 C-0.42169984 13.12469099 -0.42169984 13.12469099 5 12 C4.67 12.99 4.34 13.98 4 15 C3.34 15 2.68 15 2 15 C2 15.66 2 16.32 2 17 C-0.92906579 17.2978711 -3.14352551 17.50159903 -6 17 C-9.64151023 13.88954335 -10.8549458 12.06977471 -11.5 7.3125 C-11 4 -11 4 -9.625 2.125 C-6.32094865 -0.16242017 -3.97934099 -0.08650741 0 0 Z " fill="#3A1E58" transform="translate(549,356)"/>
<path d="M0 0 C2.31 0 4.62 0 7 0 C8.95143115 2.86975169 8.98930952 4.12614763 8.6875 7.6875 C8 11 8 11 7 12 C4.66702567 12.04092937 2.33294775 12.04241723 0 12 C0 11.34 0 10.68 0 10 C-0.66 10 -1.32 10 -2 10 C-2 7.36 -2 4.72 -2 2 C-1.34 2 -0.68 2 0 2 C0 1.34 0 0.68 0 0 Z " fill="#EEECF1" transform="translate(511,358)"/>
<path d="M0 0 C3.0625 0.3125 3.0625 0.3125 4.9375 1.4375 C6.59104531 4.19340884 6.45615568 6.16325452 6.0625 9.3125 C5 11.1875 5 11.1875 3.0625 12.3125 C-0.625 12.5 -0.625 12.5 -3.9375 12.3125 C-5.05195498 10.08359005 -5.10230286 8.78194894 -5.125 6.3125 C-5.13917969 5.61125 -5.15335937 4.91 -5.16796875 4.1875 C-4.74628104 0.75682033 -3.22792433 0.34339621 0 0 Z " fill="#F0EEF3" transform="translate(275.9375,357.6875)"/>
<path d="M0 0 C2.31 0 4.62 0 7 0 C8.85274014 3.12649899 9.37198336 5.37316225 9 9 C8.01 10.485 8.01 10.485 7 12 C3.5 12.3125 3.5 12.3125 0 12 C-2 10 -2 10 -2.1953125 8.0546875 C-2.13020833 6.03645833 -2.06510417 4.01822917 -2 2 C-1.34 2 -0.68 2 0 2 C0 1.34 0 0.68 0 0 Z " fill="#ECE9EF" transform="translate(150,358)"/>
<path d="M0 0 C3.625 -0.1875 3.625 -0.1875 7 0 C8.95143115 2.86975169 8.98930952 4.12614763 8.6875 7.6875 C8 11 8 11 7 12 C3.5625 12.25 3.5625 12.25 0 12 C-2.31332486 8.53001271 -2.33957563 7.07490752 -2 3 C-1.34 2.01 -0.68 1.02 0 0 Z " fill="#EFEDF1" transform="translate(373,358)"/>
<path d="M0 0 C0.99 0 1.98 0 3 0 C3 5.94 3 11.88 3 18 C-6.08203125 18.48828125 -6.08203125 18.48828125 -9 18 C-12.16037742 14.41823892 -12.34088545 11.34019193 -12.1875 6.6875 C-12.16042969 5.61886719 -12.13335937 4.55023438 -12.10546875 3.44921875 C-12.07066406 2.64097656 -12.03585938 1.83273437 -12 1 C-11.34 1 -10.68 1 -10 1 C-10 4.96 -10 8.92 -10 13 C-9.34 13 -8.68 13 -8 13 C-8 13.66 -8 14.32 -8 15 C-5.69 14.34 -3.38 13.68 -1 13 C-0.67 8.71 -0.34 4.42 0 0 Z " fill="#594273" transform="translate(233,355)"/>
<path d="M0 0 C1.32 0 2.64 0 4 0 C4 1.65 4 3.3 4 5 C4.99 5 5.98 5 7 5 C7 5.99 7 6.98 7 8 C6.01 8 5.02 8 4 8 C4 12.95 4 17.9 4 23 C2.68 23 1.36 23 0 23 C0 18.05 0 13.1 0 8 C-0.99 8 -1.98 8 -3 8 C-3 7.01 -3 6.02 -3 5 C-2.01 5 -1.02 5 0 5 C0 3.35 0 1.7 0 0 Z " fill="#76648C" transform="translate(357,350)"/>
<path d="M0 0 C1.134375 0.020625 2.26875 0.04125 3.4375 0.0625 C4.56006131 2.30762262 4.57163762 3.57706649 4.5625 6.0625 C4.56507813 6.76375 4.56765625 7.465 4.5703125 8.1875 C4.4375 10.0625 4.4375 10.0625 3.4375 12.0625 C0.0625 12.25 0.0625 12.25 -3.5625 12.0625 C-6.36171583 7.86367625 -5.42808093 5.94122887 -4.5625 1.0625 C-3.5625 0.0625 -3.5625 0.0625 0 0 Z " fill="#F2F1F4" transform="translate(206.5625,357.9375)"/>
<path d="M0 0 C0.99 0 1.98 0 3 0 C3.103125 0.78375 3.20625 1.5675 3.3125 2.375 C3.77595022 5.33045181 3.77595022 5.33045181 7 7 C6.01 7 5.02 7 4 7 C4 12.28 4 17.56 4 23 C2.68 23 1.36 23 0 23 C0 18.38 0 13.76 0 9 C-1.32 9 -2.64 9 -4 9 C-4 7.68 -4 6.36 -4 5 C-2.68 5 -1.36 5 0 5 C0 3.35 0 1.7 0 0 Z " fill="#AEA3BB" transform="translate(333,350)"/>
<path d="M0 0 C1.91015625 0.1328125 1.91015625 0.1328125 3.91015625 1.1328125 C4.27288352 7.54099432 4.27288352 7.54099432 2.72265625 10.0703125 C0.24966532 11.51999684 -1.26868887 11.55598573 -4.08984375 11.1328125 C-5.90234375 10.0703125 -5.90234375 10.0703125 -7.08984375 8.1328125 C-7.33984375 4.5078125 -7.33984375 4.5078125 -7.08984375 1.1328125 C-5.19099279 -0.76603846 -2.51736472 0.00913744 0 0 Z " fill="#F5F4F7" transform="translate(492.08984375,358.8671875)"/>
<path d="M0 0 C0.66 0 1.32 0 2 0 C2 12.21 2 24.42 2 37 C5.63 37 9.26 37 13 37 C13.66 35.68 14.32 34.36 15 33 C15 33.99 15 34.98 15 36 C14.01 36.99 13.02 37.98 12 39 C8.04 39 4.08 39 0 39 C0 26.13 0 13.26 0 0 Z " fill="#9485A5" transform="translate(184,272)"/>
<path d="M0 0 C1.32 0.33 2.64 0.66 4 1 C4 8.92 4 16.84 4 25 C2.68 25 1.36 25 0 25 C0 16.75 0 8.5 0 0 Z " fill="#7B6990" transform="translate(529,348)"/>
<path d="M0 0 C1.43655854 -0.08131463 2.8744483 -0.13933559 4.3125 -0.1875 C5.51326172 -0.23970703 5.51326172 -0.23970703 6.73828125 -0.29296875 C9 0 9 0 10.7890625 1.3828125 C12 3 12 3 12.0625 5.0625 C11 7 11 7 8.3125 8.25 C5.07717627 8.98252613 2.30309762 9.15729036 -1 9 C-1.125 2.25 -1.125 2.25 0 0 Z " fill="#E1DDE6" transform="translate(535,285)"/>
<path d="M0 0 C2.475 0.495 2.475 0.495 5 1 C7.72502965 0.62277985 7.72502965 0.62277985 10 0 C10 1.32 10 2.64 10 4 C8.35 4.66 6.7 5.32 5 6 C4.67 9.96 4.34 13.92 4 18 C2.68 18 1.36 18 0 18 C0 12.06 0 6.12 0 0 Z " fill="#6D5984" transform="translate(99,355)"/>
<path d="M0 0 C0.99 0 1.98 0 3 0 C3 1.98 3 3.96 3 6 C4.32 6 5.64 6 7 6 C7 6.66 7 7.32 7 8 C5.68 8 4.36 8 3 8 C3 13.28 3 18.56 3 24 C2.01 24 1.02 24 0 24 C0 19.38 0 14.76 0 10 C-0.99 10 -1.98 10 -3 10 C-3 8.68 -3 7.36 -3 6 C-2.01 6 -1.02 6 0 6 C0 4.02 0 2.04 0 0 Z " fill="#634E7C" transform="translate(403,349)"/>
<path d="M0 0 C0.33 0.99 0.66 1.98 1 3 C5.62 2.67 10.24 2.34 15 2 C15 2.99 15 3.98 15 5 C10.71 5 6.42 5 2 5 C2.66 6.32 3.32 7.64 4 9 C7.56206661 9.81870185 7.56206661 9.81870185 11 10 C11.33 9.01 11.66 8.02 12 7 C12.99 7 13.98 7 15 7 C14.6875 8.875 14.6875 8.875 14 11 C10.2794164 13.48038907 8.40203429 13.46337203 4 13 C1.5625 11.5625 1.5625 11.5625 0 9 C-0.31821008 5.96917943 -0.23343667 3.03467666 0 0 Z " fill="#4C3368" transform="translate(291,360)"/>
<path d="M0 0 C3.63 0 7.26 0 11 0 C11.33 2.31 11.66 4.62 12 7 C8.04 7 4.08 7 0 7 C0 4.69 0 2.38 0 0 Z " fill="#EEEBF0" transform="translate(77,363)"/>
<path d="M0 0 C0.33 0 0.66 0 1 0 C1.33 6.6 1.66 13.2 2 20 C2.33 19.34 2.66 18.68 3 18 C3.66 18 4.32 18 5 18 C5 18.66 5 19.32 5 20 C8.465 19.505 8.465 19.505 12 19 C12.144375 17.88625 12.28875 16.7725 12.4375 15.625 C13 12 13 12 14 10 C16.09722394 12.09722394 15.86940109 16.09714236 16 19 C15.67 19.66 15.34 20.32 15 21 C14.34 21 13.68 21 13 21 C13 21.66 13 22.32 13 23 C8.71 23 4.42 23 0 23 C0 15.41 0 7.82 0 0 Z " fill="#7C6A90" transform="translate(506,350)"/>
<path d="M0 0 C0.99 0.495 0.99 0.495 2 1 C2.33 13.54 2.66 26.08 3 39 C2.01 39 1.02 39 0 39 C0 26.13 0 13.26 0 0 Z " fill="#715D87" transform="translate(329,255)"/>
<path d="M0 0 C0.66 0 1.32 0 2 0 C2.08733513 3.08315385 2.14050127 6.16598827 2.1875 9.25 C2.21263672 10.12269531 2.23777344 10.99539063 2.26367188 11.89453125 C2.33661349 18.26476528 2.33661349 18.26476528 0.8125 21.59375 C-1.63046081 23.48915063 -3.13048607 23.40880592 -6.1875 23.25 C-7.08855469 23.21390625 -7.98960937 23.1778125 -8.91796875 23.140625 C-9.60503906 23.09421875 -10.29210937 23.0478125 -11 23 C-11.66 21.68 -12.32 20.36 -13 19 C-12.01 19 -11.02 19 -10 19 C-10 19.66 -10 20.32 -10 21 C-7.03 20.67 -4.06 20.34 -1 20 C-1.01160156 18.72382813 -1.02320313 17.44765625 -1.03515625 16.1328125 C-1.04453417 14.46354313 -1.05363437 12.79427217 -1.0625 11.125 C-1.07087891 10.28324219 -1.07925781 9.44148438 -1.08789062 8.57421875 C-1.09111328 7.76855469 -1.09433594 6.96289062 -1.09765625 6.1328125 C-1.10289307 5.38918457 -1.10812988 4.64555664 -1.11352539 3.87939453 C-1 2 -1 2 0 0 Z " fill="#493066" transform="translate(160,356)"/>
<path d="M0 0 C1.43655854 -0.08131463 2.8744483 -0.13933559 4.3125 -0.1875 C5.51326172 -0.23970703 5.51326172 -0.23970703 6.73828125 -0.29296875 C9 0 9 0 10.79296875 1.38671875 C12 3 12 3 12 5 C11.34 5 10.68 5 10 5 C10 5.99 10 6.98 10 8 C6.37 8 2.74 8 -1 8 C0 4 0 4 3 2 C2.01 2 1.02 2 0 2 C0 1.34 0 0.68 0 0 Z " fill="#8F7FA0" transform="translate(542,355)"/>
<path d="M0 0 C2.97 0.33 5.94 0.66 9 1 C9 1.66 9 2.32 9 3 C8.19175781 3.40863281 7.38351563 3.81726563 6.55078125 4.23828125 C3.70992666 5.78223377 3.70992666 5.78223377 3.29296875 8.91796875 C3.25816406 9.99691406 3.22335938 11.07585937 3.1875 12.1875 C3.11595703 13.81751953 3.11595703 13.81751953 3.04296875 15.48046875 C3.02878906 16.31191406 3.01460937 17.14335937 3 18 C2.01 18 1.02 18 0 18 C0 12.06 0 6.12 0 0 Z " fill="#7B6890" transform="translate(243,355)"/>
<path d="M0 0 C0 0.33 0 0.66 0 1 C-2.31 1.33 -4.62 1.66 -7 2 C-4.69 2.66 -2.38 3.32 0 4 C0.33 5.32 0.66 6.64 1 8 C-2.3 8 -5.6 8 -9 8 C-9.33 7.01 -9.66 6.02 -10 5 C-10.33 7.64 -10.66 10.28 -11 13 C-11.33 13 -11.66 13 -12 13 C-12.61189802 5.04532578 -12.61189802 5.04532578 -10.5 1.4375 C-6.85665449 -0.65742367 -4.16543193 -0.27769546 0 0 Z " fill="#8E7EA0" transform="translate(449,355)"/>
<path d="M0 0 C1.890625 0.296875 1.890625 0.296875 4 1 C7.67301466 7.82131293 7.28041257 14.4080894 7 22 C7 22.99 7 23.98 7 25 C6.01 25 5.02 25 4 25 C4.04640625 24.24976563 4.0928125 23.49953125 4.140625 22.7265625 C4.37647243 16.03860331 3.74387996 11.1250795 0.875 5.05859375 C0 3 0 3 0 0 Z " fill="#74618A" transform="translate(177,355)"/>
<path d="M0 0 C0.99 0 1.98 0 3 0 C3.33 2.31 3.66 4.62 4 7 C6.97 7 9.94 7 13 7 C12.67 7.66 12.34 8.32 12 9 C9.68152126 9.7166207 7.34680297 10.38242027 5 11 C4.01 11.495 4.01 11.495 3 12 C3 11.34 3 10.68 3 10 C2.34 10 1.68 10 1 10 C0.67 14.95 0.34 19.9 0 25 C-0.33 25 -0.66 25 -1 25 C-1.02886984 21.02084841 -1.04675406 17.04172347 -1.0625 13.0625 C-1.07087891 11.92619141 -1.07925781 10.78988281 -1.08789062 9.61914062 C-1.09111328 8.53955078 -1.09433594 7.45996094 -1.09765625 6.34765625 C-1.10289307 5.34742432 -1.10812988 4.34719238 -1.11352539 3.31665039 C-1 1 -1 1 0 0 Z " fill="#9384A4" transform="translate(268,348)"/>
<path d="M0 0 C0.66 0 1.32 0 2 0 C2.17942163 3.94727588 2.09350689 6.5980513 0 10 C0 9.34 0 8.68 0 8 C-0.515625 8.33 -1.03125 8.66 -1.5625 9 C-4.8358849 10.34292714 -7.49639145 10.25952656 -11 10 C-11.66 9.34 -12.32 8.68 -13 8 C-13 7.01 -13 6.02 -13 5 C-8.38 5 -3.76 5 1 5 C0.67 3.35 0.34 1.7 0 0 Z " fill="#D6D0DC" transform="translate(554,360)"/>
<path d="M0 0 C3.3 0 6.6 0 10 0 C10.38218767 1.65614657 10.71395102 3.32457024 11 5 C10 6 10 6 7.71484375 6.09765625 C6.34005859 6.08025391 6.34005859 6.08025391 4.9375 6.0625 C4.01839844 6.05347656 3.09929687 6.04445313 2.15234375 6.03515625 C1.44207031 6.02355469 0.73179688 6.01195312 0 6 C0 4.02 0 2.04 0 0 Z " fill="#FAFAFB" transform="translate(78,353)"/>
<path d="M0 0 C4.29 0 8.58 0 13 0 C13 0.33 13 0.66 13 1 C9.04 1 5.08 1 1 1 C1.33 1.99 1.66 2.98 2 4 C4.31 4.33 6.62 4.66 9 5 C9.33 4.01 9.66 3.02 10 2 C10.99 2 11.98 2 13 2 C12.6875 3.875 12.6875 3.875 12 6 C8.51131349 8.32579101 7.10281481 8.41865457 3 8 C0.625 6.5 0.625 6.5 -1 5 C-0.67 3.35 -0.34 1.7 0 0 Z " fill="#837296" transform="translate(440,365)"/>
<path d="M0 0 C0.98120464 3.05263664 0.98120464 4.94736336 0 8 C0.66 8 1.32 8 2 8 C2.99 9.485 2.99 9.485 4 11 C7.85119054 11.28527337 11.30992118 11.18082522 15 10 C14.67 10.99 14.34 11.98 14 13 C13.34 13 12.68 13 12 13 C12 13.66 12 14.32 12 15 C9.07093421 15.2978711 6.85647449 15.50159903 4 15 C0.30857751 11.84690996 -0.88990832 10.10091677 -1.375 5.25 C-1 2 -1 2 0 0 Z " fill="#6F5B86" transform="translate(539,358)"/>
<path d="M0 0 C0.66 0 1.32 0 2 0 C2 1.98 2 3.96 2 6 C2.99 6.33 3.98 6.66 5 7 C4.01 7 3.02 7 2 7 C2 12.28 2 17.56 2 23 C1.34 23 0.68 23 0 23 C0 17.72 0 12.44 0 7 C-1.32 6.67 -2.64 6.34 -4 6 C-3.01 5.67 -2.02 5.34 -1 5 C-0.67 3.35 -0.34 1.7 0 0 Z " fill="#4F376B" transform="translate(472,350)"/>
<path d="M0 0 C0.99 0 1.98 0 3 0 C3 5.94 3 11.88 3 18 C2.01 18 1.02 18 0 18 C0 12.06 0 6.12 0 0 Z " fill="#634D7B" transform="translate(114,355)"/>
<path d="M0 0 C0.84949219 0.00128906 1.69898438 0.00257813 2.57421875 0.00390625 C8.82670627 0.09280418 8.82670627 0.09280418 12.25 2.375 C4.33 2.375 -3.59 2.375 -11.75 2.375 C-12.41 3.695 -13.07 5.015 -13.75 6.375 C-15.75 8.625 -15.75 8.625 -17.75 10.375 C-18.41 10.375 -19.07 10.375 -19.75 10.375 C-19.42 9.055 -19.09 7.735 -18.75 6.375 C-18.09 6.375 -17.43 6.375 -16.75 6.375 C-16.75 5.715 -16.75 5.055 -16.75 4.375 C-11.0135597 0.45251514 -6.8713851 -0.2017872 0 0 Z " fill="#5D4676" transform="translate(442.75,274.625)"/>
<path d="M0 0 C0.33 0 0.66 0 1 0 C1 1.98 1 3.96 1 6 C2.6260287 5.93999894 4.25101549 5.8512115 5.875 5.75 C6.77992187 5.70359375 7.68484375 5.6571875 8.6171875 5.609375 C11.17110544 5.24388852 11.17110544 5.24388852 12.3203125 2.953125 C12.65675781 1.98632812 12.65675781 1.98632812 13 1 C14.33257403 11.55808656 14.33257403 11.55808656 13 16 C11 12.25 11 12.25 11 10 C7.7 10 4.4 10 1 10 C1 9.67 1 9.34 1 9 C4.63 9 8.26 9 12 9 C12 8.34 12 7.68 12 7 C8.04 7 4.08 7 0 7 C0 4.69 0 2.38 0 0 Z " fill="#9C8FAC" transform="translate(77,353)"/>
<path d="M0 0 C0.66 0 1.32 0 2 0 C2.103125 0.78375 2.20625 1.5675 2.3125 2.375 C2.77595022 5.33045181 2.77595022 5.33045181 6 7 C5.01 7.33 4.02 7.66 3 8 C2.67 12.62 2.34 17.24 2 22 C1.34 22 0.68 22 0 22 C0 17.05 0 12.1 0 7 C-0.99 6.67 -1.98 6.34 -3 6 C-2.01 6 -1.02 6 0 6 C0 4.02 0 2.04 0 0 Z " fill="#40255E" transform="translate(334,350)"/>
<path d="M0 0 C2.10409639 -0.02701408 4.20829178 -0.04640223 6.3125 -0.0625 C7.48425781 -0.07410156 8.65601562 -0.08570313 9.86328125 -0.09765625 C13 0 13 0 16 1 C16.33 3.31 16.66 5.62 17 8 C16.01 8.495 16.01 8.495 15 9 C15 7.35 15 5.7 15 4 C11.04 3.67 7.08 3.34 3 3 C3 2.34 3 1.68 3 1 C2.01 0.67 1.02 0.34 0 0 Z " fill="#685380" transform="translate(75,350)"/>
<path d="M0 0 C0.99 0.33 1.98 0.66 3 1 C3.22057835 4.97041037 2.88343932 6.23312136 1 10 C-4.28 10 -9.56 10 -15 10 C-11.6133629 6.6133629 -10.8662468 6.58036746 -6.3125 6.3125 C-4.82169922 6.21388672 -4.82169922 6.21388672 -3.30078125 6.11328125 C-2.54152344 6.07589844 -1.78226563 6.03851563 -1 6 C-0.29733387 3.02425724 -0.29733387 3.02425724 0 0 Z " fill="#604979" transform="translate(90,363)"/>
<path d="M0 0 C0.66 0 1.32 0 2 0 C3.00220537 7.83262041 2.8895125 15.1586052 2 23 C1.34 23 0.68 23 0 23 C0 15.41 0 7.82 0 0 Z " fill="#482F65" transform="translate(416,349)"/>
<path d="M0 0 C0.66 0.33 1.32 0.66 2 1 C2 3.97 2 6.94 2 10 C0.35 10.66 -1.3 11.32 -3 12 C-3 12.66 -3 13.32 -3 14 C-5.64 14 -8.28 14 -11 14 C-9 11 -9 11 -6.375 10.3125 C-5.59125 10.209375 -4.8075 10.10625 -4 10 C-3.855625 8.88625 -3.71125 7.7725 -3.5625 6.625 C-3 3 -3 3 -2 1 C-1.34 3.31 -0.68 5.62 0 8 C0 5.36 0 2.72 0 0 Z " fill="#9282A3" transform="translate(384,359)"/>
<path d="M0 0 C1.134375 0.020625 2.26875 0.04125 3.4375 0.0625 C3.4375 0.7225 3.4375 1.3825 3.4375 2.0625 C4.0975 2.0625 4.7575 2.0625 5.4375 2.0625 C5.4375 3.0525 5.4375 4.0425 5.4375 5.0625 C1.8075 5.0625 -1.8225 5.0625 -5.5625 5.0625 C-4.31580396 0.07571586 -4.31580396 0.07571586 0 0 Z " fill="#D4CEDB" transform="translate(298.5625,357.9375)"/>
<path d="M0 0 C2.73255991 0.06447056 3.77132266 0.11231558 6.0625 1.6875 C7.0625 3.3125 7.0625 3.3125 7.0625 5.3125 C6.0725 5.3125 5.0825 5.3125 4.0625 5.3125 C4.0625 4.6525 4.0625 3.9925 4.0625 3.3125 C1.7525 3.3125 -0.5575 3.3125 -2.9375 3.3125 C-3.2675 5.2925 -3.5975 7.2725 -3.9375 9.3125 C-4.5975 8.9825 -5.2575 8.6525 -5.9375 8.3125 C-6.0625 5.4375 -6.0625 5.4375 -5.9375 2.3125 C-3.9375 0.3125 -3.9375 0.3125 0 0 Z " fill="#685380" transform="translate(317.9375,354.6875)"/>
<path d="M0 0 C0.99 0 1.98 0 3 0 C3 5.28 3 10.56 3 16 C2.01 16 1.02 16 0 16 C0 10.72 0 5.44 0 0 Z " fill="#604A79" transform="translate(561,350)"/>
<path d="M0 0 C2.26171875 0.4609375 2.26171875 0.4609375 4.6875 1.375 C5.49574219 1.67148437 6.30398438 1.96796875 7.13671875 2.2734375 C7.75160156 2.51320313 8.36648438 2.75296875 9 3 C9 3.99 9 4.98 9 6 C1.49230769 6.36923077 1.49230769 6.36923077 -1 4.5 C-1.33 4.005 -1.66 3.51 -2 3 C-2 3.99 -2 4.98 -2 6 C-2.66 6 -3.32 6 -4 6 C-3.6875 4.125 -3.6875 4.125 -3 2 C-2.01 1.34 -1.02 0.68 0 0 Z " fill="#D9D3DF" transform="translate(314,364)"/>
<path d="M0 0 C0.66 0 1.32 0 2 0 C2 5.28 2 10.56 2 16 C1.34 16 0.68 16 0 16 C0 15.34 0 14.68 0 14 C-0.66 13.67 -1.32 13.34 -2 13 C-2 9.37 -2 5.74 -2 2 C-1.34 2 -0.68 2 0 2 C0 1.34 0 0.68 0 0 Z " fill="#472E64" transform="translate(497,356)"/>
<path d="M0 0 C1.39664108 0.11562606 2.79231199 0.242992 4.1875 0.375 C4.96480469 0.44460937 5.74210937 0.51421875 6.54296875 0.5859375 C9 1 9 1 11.15625 2 C15.46755106 3.51606191 19.77266507 3.47099853 24.3125 3.625 C25.24384766 3.66367188 26.17519531 3.70234375 27.13476562 3.7421875 C29.42298407 3.83606313 31.71120295 3.92174509 34 4 C34 4.33 34 4.66 34 5 C30.27084983 5.02912348 26.5417291 5.04684037 22.8125 5.0625 C21.22985352 5.07506836 21.22985352 5.07506836 19.61523438 5.08789062 C18.08286133 5.09272461 18.08286133 5.09272461 16.51953125 5.09765625 C15.58214111 5.10289307 14.64475098 5.10812988 13.67895508 5.11352539 C11.01950523 5.00082657 8.59079427 4.59376649 6 4 C6 3.34 6 2.68 6 2 C3.03 1.505 3.03 1.505 0 1 C0 0.67 0 0.34 0 0 Z " fill="#939BC9" transform="translate(259,181)"/>
<path d="M0 0 C0.33 0 0.66 0 1 0 C1.36666667 5.5 1.36666667 5.5 -0.375 7.875 C-2 9 -2 9 -4 9 C-4.2475 9.5775 -4.495 10.155 -4.75 10.75 C-6.17199401 13.30958921 -7.90438527 14.96987323 -10 17 C-10.66 17.99 -11.32 18.98 -12 20 C-12.33 18.35 -12.66 16.7 -13 15 C-12.22914063 14.41992188 -11.45828125 13.83984375 -10.6640625 13.2421875 C-9.66117187 12.46101563 -8.65828125 11.67984375 -7.625 10.875 C-6.62726563 10.10929687 -5.62953125 9.34359375 -4.6015625 8.5546875 C-1.76932305 5.77347939 -0.9177129 3.81458977 0 0 Z " fill="#C7C0D0" transform="translate(515,277)"/>
<path d="M0 0 C1.32 0.33 2.64 0.66 4 1 C5.26237731 3.52475462 5.09856404 5.31200466 5.0625 8.125 C5.05347656 9.03507812 5.04445312 9.94515625 5.03515625 10.8828125 C5.02355469 11.58148438 5.01195312 12.28015625 5 13 C4.01 13.495 4.01 13.495 3 14 C3 12.68 3 11.36 3 10 C2.67 10.99 2.34 11.98 2 13 C1.34 12.67 0.68 12.34 0 12 C0 8.04 0 4.08 0 0 Z " fill="#9081A2" transform="translate(210,356)"/>
<path d="M0 0 C2.31 0 4.62 0 7 0 C7 0.66 7 1.32 7 2 C7.99 2 8.98 2 10 2 C9.67 3.32 9.34 4.64 9 6 C4.545 5.01 4.545 5.01 0 4 C0 2.68 0 1.36 0 0 Z " fill="#D9D4DF" transform="translate(315,358)"/>
<path d="M0 0 C0.82693359 0.01804687 1.65386719 0.03609375 2.50585938 0.0546875 C4.52524933 0.1013786 6.54403445 0.17310607 8.5625 0.25 C8.5625 0.58 8.5625 0.91 8.5625 1.25 C6.77392578 1.34087891 6.77392578 1.34087891 4.94921875 1.43359375 C3.38280075 1.51801149 1.81639512 1.60265887 0.25 1.6875 C-0.53568359 1.72681641 -1.32136719 1.76613281 -2.13085938 1.80664062 C-2.88818359 1.84853516 -3.64550781 1.89042969 -4.42578125 1.93359375 C-5.12227783 1.97025146 -5.81877441 2.00690918 -6.53637695 2.04467773 C-8.6591572 2.20581153 -8.6591572 2.20581153 -11.4375 3.25 C-12.0975 4.075 -12.7575 4.9 -13.4375 5.75 C-15.4375 8.25 -15.4375 8.25 -18.4375 9.25 C-17.5143538 5.55741519 -16.57526219 4.34901657 -13.4375 2.09375 C-9.00475717 -0.31612999 -4.93978899 -0.20698552 0 0 Z " fill="#533B6E" transform="translate(289.4375,274.75)"/>
<path d="M0 0 C0.66 0 1.32 0 2 0 C2.0271045 3.04172719 2.04688964 6.08320997 2.0625 9.125 C2.07087891 9.9809375 2.07925781 10.836875 2.08789062 11.71875 C2.10538306 16.26678411 1.93192358 20.52383164 1 25 C0.34 25 -0.32 25 -1 25 C-1.33 26.32 -1.66 27.64 -2 29 C-3 27 -3 27 -2.44140625 25.21484375 C-2.15136719 24.46332031 -1.86132812 23.71179688 -1.5625 22.9375 C0.85873268 15.4646955 0.24294616 7.75628123 0 0 Z " fill="#CBC8DF" transform="translate(334,124)"/>
<path d="M0 0 C1.8871875 0.1546875 1.8871875 0.1546875 3.8125 0.3125 C4.1425 1.3025 4.4725 2.2925 4.8125 3.3125 C3.53375 3.43625 2.255 3.56 0.9375 3.6875 C-2.53540936 4.00292399 -2.53540936 4.00292399 -5.1875 6.3125 C-5.58797444 8.63525177 -5.9272104 10.96989357 -6.1875 13.3125 C-6.5175 13.3125 -6.8475 13.3125 -7.1875 13.3125 C-7.39526602 9.22643494 -7.48300012 6.19900036 -6.1875 2.3125 C-3.82973044 -0.04526956 -3.21156237 0.01705254 0 0 Z " fill="#5B4475" transform="translate(206.1875,354.6875)"/>
<path d="M0 0 C0.66 0 1.32 0 2 0 C2 3.96 2 7.92 2 12 C2.66 12 3.32 12 4 12 C4.33 12.66 4.66 13.32 5 14 C7.01669827 15.13350534 7.01669827 15.13350534 9 16 C6.1875 16.25 6.1875 16.25 3 16 C0.59021422 13.67946555 0.03266606 12.33624266 -0.29296875 8.984375 C-0.25816406 7.91703125 -0.22335938 6.8496875 -0.1875 5.75 C-0.14689453 4.13351562 -0.14689453 4.13351562 -0.10546875 2.484375 C-0.07066406 1.66453125 -0.03585938 0.8446875 0 0 Z " fill="#482F65" transform="translate(221,356)"/>
<path d="M0 0 C0.66 0 1.32 0 2 0 C1.125 4.875 1.125 4.875 0 6 C-2.33297433 6.04092937 -4.66705225 6.04241723 -7 6 C-7 4.68 -7 3.36 -7 2 C-4.69 2 -2.38 2 0 2 C0 1.34 0 0.68 0 0 Z " fill="#EEECF1" transform="translate(157,371)"/>
<path d="M0 0 C0.33 0 0.66 0 1 0 C1 2.64 1 5.28 1 8 C1.66 8 2.32 8 3 8 C3 11.96 3 15.92 3 20 C2.34 20 1.68 20 1 20 C0.67 20.66 0.34 21.32 0 22 C0 14.74 0 7.48 0 0 Z " fill="#2E114F" transform="translate(268,350)"/>
<path d="M0 0 C3.96 0 7.92 0 12 0 C8 4 8 4 4.25 4.25 C3.1775 4.1675 2.105 4.085 1 4 C0.67 2.68 0.34 1.36 0 0 Z " fill="#F0EEF2" transform="translate(441,366)"/>
<path d="M0 0 C3.96 0 7.92 0 12 0 C8 4 8 4 4.25 4.25 C3.1775 4.1675 2.105 4.085 1 4 C0.67 2.68 0.34 1.36 0 0 Z " fill="#F1EFF3" transform="translate(294,366)"/>
<path d="M0 0 C0.33 0 0.66 0 1 0 C1 2.64 1 5.28 1 8 C1.66 8 2.32 8 3 8 C2.88617347 9.95901454 2.75858875 11.9172338 2.625 13.875 C2.55539062 14.96554687 2.48578125 16.05609375 2.4140625 17.1796875 C2 20 2 20 0 22 C0 14.74 0 7.48 0 0 Z " fill="#3A1F59" transform="translate(507,350)"/>
<path d="M0 0 C0.99 0.33 1.98 0.66 3 1 C3 1.66 3 2.32 3 3 C4.051875 3.268125 5.10375 3.53625 6.1875 3.8125 C9.59072912 4.87252219 12.13158918 5.91388304 15 8 C15 8.66 15 9.32 15 10 C12.69 9.34 10.38 8.68 8 8 C8 7.34 8 6.68 8 6 C7.46375 5.87625 6.9275 5.7525 6.375 5.625 C3.5361714 4.87793984 0.77776798 3.94696636 -2 3 C-2 2.34 -2 1.68 -2 1 C-1.34 0.67 -0.68 0.34 0 0 Z " fill="#AF92AD" transform="translate(299,81)"/>
<path d="M0 0 C0.33 0.66 0.66 1.32 1 2 C1.8971875 1.505 1.8971875 1.505 2.8125 1 C5 0 5 0 8 0 C8 0.66 8 1.32 8 2 C6.34467377 3.01866229 4.67739862 4.01810813 3 5 C1.85185003 7.29629994 1.69230191 9.07698086 1.4375 11.625 C1.35371094 12.44226563 1.26992187 13.25953125 1.18359375 14.1015625 C1.12300781 14.72804688 1.06242188 15.35453125 1 16 C0.67 16 0.34 16 0 16 C0 10.72 0 5.44 0 0 Z " fill="#40265E" transform="translate(244,356)"/>
<path d="M0 0 C0.66 0.33 1.32 0.66 2 1 C1.43410156 1.60328125 0.86820313 2.2065625 0.28515625 2.828125 C-0.44832031 3.62734375 -1.18179688 4.4265625 -1.9375 5.25 C-3.03384766 6.43335938 -3.03384766 6.43335938 -4.15234375 7.640625 C-5.91420543 9.89044414 -6.59776603 11.21628554 -7 14 C-5.35 14 -3.7 14 -2 14 C-2 14.33 -2 14.66 -2 15 C-3.98 15 -5.96 15 -8 15 C-8.3125 11.8125 -8.3125 11.8125 -8 8 C-5.6875 5.25 -5.6875 5.25 -3 3 C-2.401875 2.401875 -1.80375 1.80375 -1.1875 1.1875 C-0.795625 0.795625 -0.40375 0.40375 0 0 Z " fill="#584172" transform="translate(132,270)"/>
<path d="M0 0 C2.29013653 3.4352048 2.17842973 4.985331 2 9 C1.01 9 0.02 9 -1 9 C-0.34 7.35 0.32 5.7 1 4 C0.34 4 -0.32 4 -1 4 C-1 4.66 -1 5.32 -1 6 C-3.31 6 -5.62 6 -8 6 C-8.33 5.34 -8.66 4.68 -9 4 C-6.36 3.67 -3.72 3.34 -1 3 C-0.67 2.01 -0.34 1.02 0 0 Z " fill="#7D6A91" transform="translate(158,367)"/>
<path d="M0 0 C1.98 0 3.96 0 6 0 C6.66 1.32 7.32 2.64 8 4 C5.03 4 2.06 4 -1 4 C-0.67 2.68 -0.34 1.36 0 0 Z " fill="#EBE8EE" transform="translate(442,358)"/>
<path d="M0 0 C4.29 0 8.58 0 13 0 C12.01 0.495 12.01 0.495 11 1 C11 1.66 11 2.32 11 3 C10.34 3 9.68 3 9 3 C8.67 3.66 8.34 4.32 8 5 C5.69 4.67 3.38 4.34 1 4 C1.66 3.34 2.32 2.68 3 2 C2.01 1.34 1.02 0.68 0 0 Z " fill="#9485A4" transform="translate(486,355)"/>
<path d="M0 0 C0.33 0 0.66 0 1 0 C1.144375 1.093125 1.28875 2.18625 1.4375 3.3125 C1.88288104 6.93122987 1.88288104 6.93122987 3 10 C5.97 10.495 5.97 10.495 9 11 C9 11.33 9 11.66 9 12 C3.375 12.25 3.375 12.25 0 10 C-0.546875 7.87109375 -0.546875 7.87109375 -0.75 5.4375 C-0.86601562 4.22900391 -0.86601562 4.22900391 -0.984375 2.99609375 C-0.98953125 2.33738281 -0.9946875 1.67867188 -1 1 C-0.67 0.67 -0.34 0.34 0 0 Z " fill="#4D3469" transform="translate(370,360)"/>
<path d="M0 0 C2 1 2 1 3.125 3.625 C4.06141642 7.23689189 4.14024404 10.28353297 4 14 C4 14.99 4 15.98 4 17 C3.01 17 2.02 17 1 17 C1.01740234 15.78763672 1.01740234 15.78763672 1.03515625 14.55078125 C1.04417969 13.48214844 1.05320313 12.41351563 1.0625 11.3125 C1.07410156 10.25675781 1.08570313 9.20101563 1.09765625 8.11328125 C1.00865425 5.27589738 0.64939838 2.7561081 0 0 Z " fill="#B1A6BD" transform="translate(180,363)"/>
<path d="M0 0 C2.31 0 4.62 0 7 0 C7.33 1.32 7.66 2.64 8 4 C5.03 4 2.06 4 -1 4 C-0.67 2.68 -0.34 1.36 0 0 Z " fill="#EAE8EE" transform="translate(543,358)"/>
<path d="M0 0 C0.99 0 1.98 0 3 0 C2.25 5.75 2.25 5.75 0 8 C-0.33 7.34 -0.66 6.68 -1 6 C-1.66 7.32 -2.32 8.64 -3 10 C-3.33 9.34 -3.66 8.68 -4 8 C-3.22265625 6.0546875 -3.22265625 6.0546875 -2.0625 3.875 C-1.49208984 2.78832031 -1.49208984 2.78832031 -0.91015625 1.6796875 C-0.60980469 1.12539063 -0.30945313 0.57109375 0 0 Z " fill="#87779A" transform="translate(191,355)"/>
<path d="M0 0 C2.31 0 4.62 0 7 0 C8.50156874 3.00313748 8.09281204 5.79067522 8.0625 9.125 C8.05347656 10.40632813 8.04445312 11.68765625 8.03515625 13.0078125 C8.02355469 13.99523437 8.01195312 14.98265625 8 16 C7.67 16 7.34 16 7 16 C7 12.04 7 8.08 7 4 C6.34 4 5.68 4 5 4 C5 3.34 5 2.68 5 2 C3.35 1.67 1.7 1.34 0 1 C0 0.67 0 0.34 0 0 Z " fill="#452C62" transform="translate(130,356)"/>
<path d="M0 0 C0.99 0.33 1.98 0.66 3 1 C3 1.66 3 2.32 3 3 C3.928125 2.938125 4.85625 2.87625 5.8125 2.8125 C9 3 9 3 10.69921875 4.51171875 C11.12847656 5.00285156 11.55773437 5.49398438 12 6 C10.5629191 6.05422947 9.12524538 6.09289723 7.6875 6.125 C6.88699219 6.14820313 6.08648437 6.17140625 5.26171875 6.1953125 C3 6 3 6 0 4 C0 2.68 0 1.36 0 0 Z " fill="#74618A" transform="translate(312,367)"/>
<path d="M0 0 C0.66 0 1.32 0 2 0 C2.33 2.31 2.66 4.62 3 7 C5.64 7.33 8.28 7.66 11 8 C11 8.33 11 8.66 11 9 C7.37 9 3.74 9 0 9 C0 6.03 0 3.06 0 0 Z " fill="#452B62" transform="translate(75,363)"/>
<path d="M0 0 C0.99 0 1.98 0 3 0 C3 1.98 3 3.96 3 6 C4.32 6.33 5.64 6.66 7 7 C3.7 7 0.4 7 -3 7 C-2.01 6.67 -1.02 6.34 0 6 C0 4.02 0 2.04 0 0 Z " fill="#746089" transform="translate(403,349)"/>
<path d="M0 0 C1.32 0 2.64 0 4 0 C4 1.65 4 3.3 4 5 C4.99 5.33 5.98 5.66 7 6 C3.7 6 0.4 6 -3 6 C-2.01 5.67 -1.02 5.34 0 5 C0 3.35 0 1.7 0 0 Z " fill="#837297" transform="translate(357,350)"/>
<path d="M0 0 C0.33 0 0.66 0 1 0 C1 4.95 1 9.9 1 15 C1.66 15 2.32 15 3 15 C3.33 17.31 3.66 19.62 4 22 C1.31315259 20.6565763 1.01073644 19.84437335 0 17 C-0.23924241 14.07856788 -0.18813798 11.17863106 -0.125 8.25 C-0.11597656 7.45722656 -0.10695313 6.66445313 -0.09765625 5.84765625 C-0.07417012 3.89830719 -0.03830137 1.94911425 0 0 Z " fill="#7B6990" transform="translate(267,292)"/>
<path d="M0 0 C3.53677664 -0.32152515 5.3962104 -0.4131192 8.375 1.625 C10.4131192 4.6037896 10.32152515 6.46322336 10 10 C9.34 9.01 8.68 8.02 8 7 C5.60808758 3.73105302 3.81394315 1.49833481 0 0 Z " fill="#51396C" transform="translate(274,356)"/>
<path d="M0 0 C0 1.32 0 2.64 0 4 C-1.98 4.66 -3.96 5.32 -6 6 C-6.33 4.35 -6.66 2.7 -7 1 C-4 0 -4 0 0 0 Z " fill="#79668E" transform="translate(109,355)"/>
<path d="M0 0 C-0.5775 0.2475 -1.155 0.495 -1.75 0.75 C-4.38704101 2.21502278 -6.07358864 3.67502077 -8 6 C-8.79681318 8.64184541 -8.79681318 8.64184541 -9 11 C-9.33 11 -9.66 11 -10 11 C-10.08096803 9.54257537 -10.13917774 8.08387193 -10.1875 6.625 C-10.22230469 5.81289063 -10.25710938 5.00078125 -10.29296875 4.1640625 C-10.19628906 3.44992187 -10.09960938 2.73578125 -10 2 C-6.3558226 -0.4294516 -4.28758728 -0.16179575 0 0 Z " fill="#50386C" transform="translate(493,356)"/>
<path d="M0 0 C6.625 -0.25 6.625 -0.25 10 2 C9.67 3.65 9.34 5.3 9 7 C8.649375 6.360625 8.29875 5.72125 7.9375 5.0625 C5.22815794 2.17836168 2.84141089 2.2899178 -1 2 C-0.67 1.34 -0.34 0.68 0 0 Z " fill="#563F71" transform="translate(442,356)"/>
<path d="M0 0 C0.99 0.33 1.98 0.66 3 1 C2.67 4.96 2.34 8.92 2 13 C1.34 12.67 0.68 12.34 0 12 C0 8.04 0 4.08 0 0 Z " fill="#847397" transform="translate(486,298)"/>
<path d="M0 0 C0.66 0 1.32 0 2 0 C3.38938077 1.96147874 4.7260411 3.96166576 6 6 C5.67 6.66 5.34 7.32 5 8 C3.68 7.01 2.36 6.02 1 5 C1.33 7.31 1.66 9.62 2 12 C1.34 11.67 0.68 11.34 0 11 C0 7.37 0 3.74 0 0 Z " fill="#D3CDD9" transform="translate(331,300)"/>
<path d="M0 0 C5.19822672 1.36144033 8.09543873 3.46730171 12 7 C11.01 7.66 10.02 8.32 9 9 C7.49704815 7.69088122 5.99770689 6.37761608 4.5 5.0625 C3.6646875 4.33160156 2.829375 3.60070312 1.96875 2.84765625 C1.3190625 2.23792969 0.669375 1.62820312 0 1 C0 0.67 0 0.34 0 0 Z " fill="#DFBBC1" transform="translate(314,91)"/>
<path d="M0 0 C1.31223496 3.93670488 0.24296256 6.12488144 -1 10 C-2.65 9.67 -4.3 9.34 -6 9 C-5.67 8.01 -5.34 7.02 -5 6 C-4.34 6.33 -3.68 6.66 -3 7 C-2.690625 6.030625 -2.38125 5.06125 -2.0625 4.0625 C-1 1 -1 1 0 0 Z " fill="#5F4978" transform="translate(190,360)"/>
<path d="M0 0 C0.33 0 0.66 0 1 0 C1.33 1.98 1.66 3.96 2 6 C4.31 6 6.62 6 9 6 C8.01 7.485 8.01 7.485 7 9 C4.375 9.1875 4.375 9.1875 2 9 C1.67 9.66 1.34 10.32 1 11 C-0.28317892 7.15046324 -0.06643637 4.05261865 0 0 Z " fill="#8F80A1" transform="translate(418,349)"/>
<path d="M0 0 C0 0.33 0 0.66 0 1 C-1.36125 1.37125 -1.36125 1.37125 -2.75 1.75 C-6.10351489 3.03981342 -7.67708236 4.31971042 -10 7 C-10.99 6.67 -11.98 6.34 -13 6 C-8.97775189 0.59076978 -6.66421473 -0.14809366 0 0 Z " fill="#CDC6D5" transform="translate(384,273)"/>
<path d="M0 0 C-3.75 2 -3.75 2 -6 2 C-6.33 2.99 -6.66 3.98 -7 5 C-7.66 5 -8.32 5 -9 5 C-9.33 6.98 -9.66 8.96 -10 11 C-10.33 11 -10.66 11 -11 11 C-11.36658354 4.52369077 -11.36658354 4.52369077 -9.6875 2.125 C-6.48758253 -0.00827831 -3.72635007 -0.10071216 0 0 Z " fill="#6D5984" transform="translate(379,356)"/>
<path d="M0 0 C0.99 0.33 1.98 0.66 3 1 C2.67 4.63 2.34 8.26 2 12 C1.34 12 0.68 12 0 12 C0 8.04 0 4.08 0 0 Z " fill="#695581" transform="translate(329,298)"/>
<path d="M0 0 C0.99 0 1.98 0 3 0 C3 0.66 3 1.32 3 2 C5.97 2.33 8.94 2.66 12 3 C12 3.33 12 3.66 12 4 C8.7 4 5.4 4 2 4 C1.34 2.68 0.68 1.36 0 0 Z " fill="#6A5581" transform="translate(147,375)"/>
<path d="M0 0 C0.66 0 1.32 0 2 0 C2.33 1.65 2.66 3.3 3 5 C-1.62 5 -6.24 5 -11 5 C-11 4.67 -11 4.34 -11 4 C-5.555 3.505 -5.555 3.505 0 3 C0 2.01 0 1.02 0 0 Z " fill="#52396D" transform="translate(552,360)"/>
<path d="M0 0 C0.99 0.495 0.99 0.495 2 1 C2 1.99 2 2.98 2 4 C2.66 4 3.32 4 4 4 C4.33 7.3 4.66 10.6 5 14 C3 12 3 12 2.875 9.375 C2.91625 8.59125 2.9575 7.8075 3 7 C2.34 7 1.68 7 1 7 C0.67 4.69 0.34 2.38 0 0 Z " fill="#8A93C4" transform="translate(329,110)"/>
<path d="M0 0 C0.9590625 0.2784375 0.9590625 0.2784375 1.9375 0.5625 C2.9584375 0.7790625 2.9584375 0.7790625 4 1 C4.33 0.67 4.66 0.34 5 0 C6.99958364 -0.04080783 9.00045254 -0.04254356 11 0 C8.59563974 3.60654039 7.05320393 3.85452932 3 5 C2.87625 4.360625 2.7525 3.72125 2.625 3.0625 C2.315625 2.0415625 2.315625 2.0415625 2 1 C1.34 0.67 0.68 0.34 0 0 Z " fill="#7E6C92" transform="translate(124,355)"/>
<path d="M0 0 C0.33 0.99 0.66 1.98 1 3 C-0.375 4.5 -0.375 4.5 -2 6 C-2.66 6 -3.32 6 -4 6 C-4 6.99 -4 7.98 -4 9 C-4.66 9 -5.32 9 -6 9 C-4.68775452 5.06326356 -3.08089673 2.77280706 0 0 Z " fill="#5A4374" transform="translate(84,278)"/>
<path d="M0 0 C0.99 0 1.98 0 3 0 C2.67 1.32 2.34 2.64 2 4 C0.02 4.33 -1.96 4.66 -4 5 C-3.67 4.34 -3.34 3.68 -3 3 C-2.34 3 -1.68 3 -1 3 C-0.67 2.01 -0.34 1.02 0 0 Z " fill="#6E5A85" transform="translate(450,367)"/>
<path d="M0 0 C0.99 0 1.98 0 3 0 C2.67 1.32 2.34 2.64 2 4 C0.02 4.33 -1.96 4.66 -4 5 C-3.67 4.34 -3.34 3.68 -3 3 C-2.34 3 -1.68 3 -1 3 C-0.67 2.01 -0.34 1.02 0 0 Z " fill="#6C5883" transform="translate(303,367)"/>
<path d="M0 0 C0.33 0.99 0.66 1.98 1 3 C0.67 3.66 0.34 4.32 0 5 C-2.64 5 -5.28 5 -8 5 C-5.59563974 1.39345961 -4.05320393 1.14547068 0 0 Z " fill="#7B6990" transform="translate(232,368)"/>
<path d="M0 0 C0.33 0.99 0.66 1.98 1 3 C0.0409375 3.6496875 0.0409375 3.6496875 -0.9375 4.3125 C-3.26746003 5.91239177 -3.26746003 5.91239177 -4 9 C-4.66 9 -5.32 9 -6 9 C-5.34 7.02 -4.68 5.04 -4 3 C-3.34 3 -2.68 3 -2 3 C-2 2.34 -2 1.68 -2 1 C-1.34 0.67 -0.68 0.34 0 0 Z " fill="#6D5984" transform="translate(527,278)"/>
<path d="M0 0 C2 3 2 3 2 5 C2.66 5.33 3.32 5.66 4 6 C0.7 5.34 -2.6 4.68 -6 4 C-4.68 3.34 -3.36 2.68 -2 2 C-1.34 1.34 -0.68 0.68 0 0 Z " fill="#837297" transform="translate(495,367)"/>
<path d="M0 0 C0.66 0.33 1.32 0.66 2 1 C3.29411765 8.41176471 3.29411765 8.41176471 2 11 C1.01 11 0.02 11 -1 11 C-0.9278125 10.37351562 -0.855625 9.74703125 -0.78125 9.1015625 C-0.6884375 8.28429687 -0.595625 7.46703125 -0.5 6.625 C-0.4071875 5.81289063 -0.314375 5.00078125 -0.21875 4.1640625 C0.03352351 2.03087175 0.03352351 2.03087175 0 0 Z " fill="#7A688F" transform="translate(519,360)"/>
<path d="M0 0 C-1 3 -1 3 -3 4 C-4.99960012 4.039992 -7.00047242 4.04346799 -9 4 C-3 0 -3 0 0 0 Z " fill="#553D70" transform="translate(554,368)"/>
<path d="M0 0 C1.98 0 3.96 0 6 0 C6 0.99 6 1.98 6 3 C4.02 3 2.04 3 0 3 C0 2.01 0 1.02 0 0 Z " fill="#FBFAFB" transform="translate(316,366)"/>
<path d="M0 0 C-1.32 0.33 -2.64 0.66 -4 1 C-4 1.66 -4 2.32 -4 3 C-5.98 3 -7.96 3 -10 3 C-9.01 2.67 -8.02 2.34 -7 2 C-7 1.34 -7 0.68 -7 0 C-2.25 -1.125 -2.25 -1.125 0 0 Z " fill="#9199C8" transform="translate(303,182)"/>
<path d="M0 0 C0.66 0.33 1.32 0.66 2 1 C1.01 1.33 0.02 1.66 -1 2 C-0.67 3.32 -0.34 4.64 0 6 C-1.32 5.67 -2.64 5.34 -4 5 C-3.6875 3.0625 -3.6875 3.0625 -3 1 C-2.01 0.67 -1.02 0.34 0 0 Z " fill="#FBA18F" transform="translate(258,49)"/>
</svg>
