<?xml version="1.0" encoding="UTF-8"?>
<svg version="1.1" xmlns="http://www.w3.org/2000/svg" width="285" height="170">
<path d="M0 0 C94.05 0 188.1 0 285 0 C285 56.1 285 112.2 285 170 C190.95 170 96.9 170 0 170 C0 113.9 0 57.8 0 0 Z " fill="#FDFDFD" transform="translate(0,0)"/>
<path d="M0 0 C5.2216357 3.00378631 9.83744292 7.76232875 11.75 13.5 C12.96805794 29.21494422 12.96805794 29.21494422 7.75 35.5 C2.73023282 40.35643419 -2.49484902 43.37506993 -9.62890625 43.5625 C-17.20399736 43.19241921 -22.37345413 40.53203484 -27.5625 35.0625 C-28.3978125 33.7940625 -28.3978125 33.7940625 -29.25 32.5 C-30.11625 31.200625 -30.11625 31.200625 -31 29.875 C-33.2529543 23.79202338 -33.38070076 17.25968974 -30.75 11.25 C-24.4397084 0.33611489 -11.97267878 -5.27451346 0 0 Z " fill="#4755A3" transform="translate(135.25,33.5)"/>
<path d="M0 0 C1.36821019 1.29751933 2.714489 2.62050117 4 4 C2.65324235 6.97977276 1.139133 9.13709317 -1.1171875 11.49609375 C-2.02791016 12.45805664 -2.02791016 12.45805664 -2.95703125 13.43945312 C-3.58996094 14.09880859 -4.22289062 14.75816406 -4.875 15.4375 C-8.75684237 19.50743164 -12.57221349 23.5300975 -16 28 C-19.72874275 26.63435633 -22.8702417 24.92557265 -26.1875 22.75 C-29.5938609 20.54376096 -33.00495169 18.3752518 -36.5 16.3125 C-41.74202945 13.17923484 -46.93990296 9.9763569 -52.125 6.75 C-53.4253418 5.95203003 -53.4253418 5.95203003 -54.75195312 5.13793945 C-55.55826172 4.63351318 -56.36457031 4.12908691 -57.1953125 3.609375 C-57.92766113 3.15530273 -58.66000977 2.70123047 -59.41455078 2.23339844 C-59.93774902 1.82637695 -60.46094727 1.41935547 -61 1 C-61 0.34 -61 -0.32 -61 -1 C-40.33527087 -12.14380681 -19.97956847 -13.99171587 0 0 Z " fill="#E78728" transform="translate(175,20)"/>
<path d="M0 0 C11.93313178 5.76082224 19.6795127 11.95746442 26.77050781 23.11230469 C28.93285773 26.43225892 31.29313153 29.61052518 33.625 32.8125 C38 38.8454032 38 38.8454032 38 40 C34.06288563 40.14492719 30.12645375 40.23394537 26.1875 40.3125 C25.06794922 40.35439453 23.94839844 40.39628906 22.79492188 40.43945312 C21.18520508 40.46362305 21.18520508 40.46362305 19.54296875 40.48828125 C18.55321045 40.51446533 17.56345215 40.54064941 16.54370117 40.56762695 C14 40 14 40 12.25537109 37.70556641 C11.84109863 36.81272949 11.42682617 35.91989258 11 35 C10.69763428 34.36070557 10.39526855 33.72141113 10.08374023 33.06274414 C7.92107677 27.47864186 7.31695197 22.20678184 6.91601562 16.26757812 C6.31438145 9.58883103 3.70920414 5.56380621 0 0 Z " fill="#FBB7C7" transform="translate(140,37)"/>
<path d="M0 0 C2.73083902 -0.13548815 5.45491807 -0.23429855 8.1875 -0.3125 C8.95642578 -0.35439453 9.72535156 -0.39628906 10.51757812 -0.43945312 C14.81392825 -0.53164948 16.49493273 -0.38123177 20.04296875 2.296875 C22 5 22 5 22.125 8.5625 C20.7804712 12.67078244 19.78413662 13.94340401 16 16 C12.1875 16.25 12.1875 16.25 9 16 C9.309375 16.7425 9.61875 17.485 9.9375 18.25 C11 21 11 21 12 25 C8.04 25 4.08 25 0 25 C0 23.68 0 22.36 0 21 C0.66 21 1.32 21 2 21 C1.85845864 18.43719792 1.71191438 15.87484515 1.5625 13.3125 C1.52318359 12.59126953 1.48386719 11.87003906 1.44335938 11.12695312 C1.21814322 7.33292718 0.87160695 3.71348508 0 0 Z " fill="#2E114F" transform="translate(14,109)"/>
<path d="M0 0 C0 5.28 0 10.56 0 16 C1.32 14.68 2.64 13.36 4 12 C4 11.01 4 10.02 4 9 C6.97 9 9.94 9 13 9 C13 9.99 13 10.98 13 12 C10.5 14.1875 10.5 14.1875 8 16 C9.37626099 20.01409454 11.34304697 22.72309126 14 26 C14 26.66 14 27.32 14 28 C10.8125 28.4375 10.8125 28.4375 7 28 C4.88841619 25.91454966 3.43260857 23.58793807 2 21 C2.33 23.31 2.66 25.62 3 28 C-0.63 28 -4.26 28 -8 28 C-8 26.68 -8 25.36 -8 24 C-7.34 24 -6.68 24 -6 24 C-6.13931138 20.9163358 -6.28759281 17.83316583 -6.4375 14.75 C-6.47681641 13.87730469 -6.51613281 13.00460938 -6.55664062 12.10546875 C-6.59853516 11.26113281 -6.64042969 10.41679688 -6.68359375 9.546875 C-6.72025146 8.77182617 -6.75690918 7.99677734 -6.79467773 7.19824219 C-6.99603015 5.0425024 -7.41729297 3.08198525 -8 1 C-6 0 -6 0 0 0 Z " fill="#2A0D4C" transform="translate(212,106)"/>
<path d="M0 0 C0.33 4.95 0.66 9.9 1 15 C3.1490712 11.4472136 3.1490712 11.4472136 3 9 C5.97 9 8.94 9 12 9 C10.95206337 13.19174654 10.08236365 14.21592961 7 17 C7.433125 17.62648438 7.86625 18.25296875 8.3125 18.8984375 C8.869375 19.71570313 9.42625 20.53296875 10 21.375 C10.556875 22.18710938 11.11375 22.99921875 11.6875 23.8359375 C13 26 13 26 13 28 C9.8125 28.4375 9.8125 28.4375 6 28 C3.88841619 25.91454966 2.43260857 23.58793807 1 21 C1.33 23.31 1.66 25.62 2 28 C-1.63 28 -5.26 28 -9 28 C-9 26.68 -9 25.36 -9 24 C-8.01 24 -7.02 24 -6 24 C-6.33 17.73 -6.66 11.46 -7 5 C-7.66 4.67 -8.32 4.34 -9 4 C-9 3.01 -9 2.02 -9 1 C-6 0 -6 0 0 0 Z " fill="#2A0D4C" transform="translate(146,106)"/>
<path d="M0 0 C2.72411796 2.17929437 3.7573387 3.72429487 4.41015625 7.15625 C4.6782732 11.28112609 4.31315244 13.48851767 2.125 17.0625 C-2.25481749 19.77798684 -5.97584398 20.03363749 -11 19 C-13.78198623 16.88039144 -14.7405366 15.51404526 -15.33203125 12.0625 C-15.5597965 7.6084239 -14.90680422 4.52969084 -12 1 C-8.4454704 -1.89628337 -4.16445918 -1.2885929 0 0 Z " fill="#2F124F" transform="translate(112,115)"/>
<path d="M0 0 C2.59659354 2.14218967 3.78430446 3.60627496 4.3046875 6.96875 C4.43108246 10.73251101 4.25061092 13.92021664 2 17 C-2.23966657 19.82644438 -6.02444395 19.76547016 -11 19 C-13.91934258 16.84524714 -14.76181917 15.40121275 -15.3671875 11.83984375 C-15.59827433 7.76863753 -15.32819701 5.54322264 -13.1875 2 C-9.19289574 -1.65220961 -5.00069374 -1.4388314 0 0 Z " fill="#2E114F" transform="translate(199,115)"/>
<path d="M0 0 C4.63235294 2.26470588 4.63235294 2.26470588 6 5 C6.61885492 9.99504325 6.75635505 13.7800725 4.0625 18.125 C-0.04999279 20.64285273 -3.29409031 20.93238585 -8 20 C-11.41049703 17.86843936 -11.88307099 16.45936397 -12.875 12.5625 C-13.00401532 8.88556349 -12.86426763 7.1353592 -11 4 C-7.44492932 0.34617736 -5.07847471 -0.7406109 0 0 Z " fill="#301350" transform="translate(50,114)"/>
<path d="M0 0 C7.92 0 15.84 0 24 0 C24 2.64 24 5.28 24 8 C20.92463146 7.34099246 18.92264434 6.46132217 16 5 C16 10.28 16 15.56 16 21 C16.66 21 17.32 21 18 21 C18 22.32 18 23.64 18 25 C14.04 25 10.08 25 6 25 C6 23.68 6 22.36 6 21 C6.66 20.67 7.32 20.34 8 20 C8.31241371 17.45058627 8.51303421 14.99638487 8.625 12.4375 C8.68300781 11.37112305 8.68300781 11.37112305 8.7421875 10.28320312 C8.83671783 8.52257575 8.91945817 6.76132272 9 5 C8.22269531 5.31710938 7.44539062 5.63421875 6.64453125 5.9609375 C4.42500334 6.83301198 2.32152736 7.48410503 0 8 C0 5.36 0 2.72 0 0 Z " fill="#311551" transform="translate(160,109)"/>
<path d="M0 0 C2 2 2 2 2.1953125 5.0390625 C2.17210937 6.22242187 2.14890625 7.40578125 2.125 8.625 C2.10695313 9.81351563 2.08890625 11.00203125 2.0703125 12.2265625 C2.04710937 13.14179688 2.02390625 14.05703125 2 15 C2.99 15.33 3.98 15.66 5 16 C5 16.99 5 17.98 5 19 C1.37 19 -2.26 19 -6 19 C-6 17.68 -6 16.36 -6 15 C-5.34 15 -4.68 15 -4 15 C-4.33 11.7 -4.66 8.4 -5 5 C-6.32 5 -7.64 5 -9 5 C-9.33 8.3 -9.66 11.6 -10 15 C-9.01 15.33 -8.02 15.66 -7 16 C-7 16.99 -7 17.98 -7 19 C-10.63 19 -14.26 19 -18 19 C-18 17.68 -18 16.36 -18 15 C-17.34 15 -16.68 15 -16 15 C-16 11.37 -16 7.74 -16 4 C-16.66 4 -17.32 4 -18 4 C-18 2.68 -18 1.36 -18 0 C-17.31292969 0.01160156 -16.62585938 0.02320312 -15.91796875 0.03515625 C-14.56638672 0.04869141 -14.56638672 0.04869141 -13.1875 0.0625 C-11.84751953 0.07990234 -11.84751953 0.07990234 -10.48046875 0.09765625 C-0.9798995 -0.27638191 -0.9798995 -0.27638191 0 0 Z " fill="#2D104E" transform="translate(264,115)"/>
<path d="M0 0 C3.96 0 7.92 0 12 0 C12 1.32 12 2.64 12 4 C11.01 4 10.02 4 9 4 C9 9.28 9 14.56 9 20 C10.98 19.34 12.96 18.68 15 18 C16.32911682 17.65023242 17.66082739 17.30903983 19 17 C19 19.64 19 22.28 19 25 C12.73 25 6.46 25 0 25 C0 23.68 0 22.36 0 21 C0.66 21 1.32 21 2 21 C1.85845864 18.43719792 1.71191438 15.87484515 1.5625 13.3125 C1.52318359 12.59126953 1.48386719 11.87003906 1.44335938 11.12695312 C1.40146484 10.42119141 1.35957031 9.71542969 1.31640625 8.98828125 C1.26141968 8.02208862 1.26141968 8.02208862 1.20532227 7.03637695 C0.96660193 4.6687594 0.46668225 2.33341123 0 0 Z " fill="#2D0F4E" transform="translate(75,109)"/>
<path d="M0 0 C2.4375 2.25 2.4375 2.25 4 5 C4 6.65 4 8.3 4 10 C-1.445 10.495 -1.445 10.495 -7 11 C-6.67 11.66 -6.34 12.32 -6 13 C-4.10466658 13.46523063 -4.10466658 13.46523063 -1.9375 13.625 C-0.638125 13.74875 0.66125 13.8725 2 14 C2 15.32 2 16.64 2 18 C-1.48930896 19.74465448 -5.19286977 19.56450552 -9 19 C-12.0625 17 -12.0625 17 -14 14 C-14.83878424 9.96080598 -14.38711831 6.89037212 -12.75 3.125 C-8.94866067 -1.49091205 -5.72270266 -1.53286678 0 0 Z " fill="#301351" transform="translate(240,115)"/>
<path d="M0 0 C0 1.65 0 3.3 0 5 C2.31 5 4.62 5 7 5 C7 6.32 7 7.64 7 9 C5.02 9 3.04 9 1 9 C1 12.3 1 15.6 1 19 C2.98 19 4.96 19 7 19 C7 20.32 7 21.64 7 23 C3.89079391 24.55460305 0.36916972 24.72720693 -3 24 C-5.3477112 21.76283125 -5.95380107 20.44104578 -6.29296875 17.203125 C-6.25816406 16.22859375 -6.22335938 15.2540625 -6.1875 14.25 C-6.16042969 13.26515625 -6.13335937 12.2803125 -6.10546875 11.265625 C-6.07066406 10.51796875 -6.03585938 9.7703125 -6 9 C-6.66 9 -7.32 9 -8 9 C-7.53918323 4.85264908 -4.48412936 0 0 0 Z " fill="#341854" transform="translate(66,110)"/>
<path d="M0 0 C1 1 1 1 1.0625 3.5625 C1.041875 4.366875 1.02125 5.17125 1 6 C-2.27275026 6 -4.846632 5.70074844 -8 5 C-8 7.97 -8 10.94 -8 14 C-5.03 14 -2.06 14 1 14 C1.33 14.99 1.66 15.98 2 17 C-2.23966657 19.82644438 -6.02444395 19.76547016 -11 19 C-13.91934258 16.84524714 -14.76181917 15.40121275 -15.3671875 11.83984375 C-15.59827433 7.76863753 -15.32819701 5.54322264 -13.1875 2 C-8.87771818 -1.94037195 -5.35747328 -0.86410859 0 0 Z " fill="#2C0F4D" transform="translate(134,115)"/>
<path d="M0 0 C0.33 0 0.66 0 1 0 C1.33 4.95 1.66 9.9 2 15 C4.1490712 11.4472136 4.1490712 11.4472136 4 9 C6.97 9 9.94 9 13 9 C11.95206337 13.19174654 11.08236365 14.21592961 8 17 C8.433125 17.62648438 8.86625 18.25296875 9.3125 18.8984375 C9.869375 19.71570313 10.42625 20.53296875 11 21.375 C11.556875 22.18710938 12.11375 22.99921875 12.6875 23.8359375 C14 26 14 26 14 28 C10.8125 28.4375 10.8125 28.4375 7 28 C4.88841619 25.91454966 3.43260857 23.58793807 2 21 C1.34 21.66 0.68 22.32 0 23 C0 15.41 0 7.82 0 0 Z " fill="#311451" transform="translate(145,106)"/>
<path d="M0 0 C2.97 0 5.94 0 9 0 C9 0.99 9 1.98 9 3 C6.5 5.1875 6.5 5.1875 4 7 C5.37626099 11.01409454 7.34304697 13.72309126 10 17 C10 17.66 10 18.32 10 19 C6.8125 19.4375 6.8125 19.4375 3 19 C0.88841619 16.91454966 -0.56739143 14.58793807 -2 12 C-2.66 12.99 -3.32 13.98 -4 15 C-4.49516441 7.57253385 -4.49516441 7.57253385 -2 4.6875 C-1.01 3.8521875 -1.01 3.8521875 0 3 C0 2.01 0 1.02 0 0 Z " fill="#331753" transform="translate(216,115)"/>
<path d="M0 0 C3.36592995 1.60701169 6.51939664 3.47065346 9.6875 5.4375 C10.66074219 6.03433594 11.63398438 6.63117187 12.63671875 7.24609375 C15 9 15 9 16 12 C14.8553125 12.61875 14.8553125 12.61875 13.6875 13.25 C11.0633358 14.95875809 9.69678024 16.41017753 8 19 C7.90203125 18.43152344 7.8040625 17.86304687 7.703125 17.27734375 C6.37607008 10.42470673 3.87034741 5.80552112 0 0 Z " fill="#FAF6F5" transform="translate(140,37)"/>
<path d="M0 0 C2.31 0.33 4.62 0.66 7 1 C7.87890625 7.15234375 7.87890625 7.15234375 8 9 C7 10 7 10 3.4375 10.0625 C2.303125 10.041875 1.16875 10.02125 0 10 C0 6.7 0 3.4 0 0 Z " fill="#9789A8" transform="translate(37,146)"/>
<path d="M0 0 C2.375 -0.125 2.375 -0.125 5 0 C7 2 7 2 7.1953125 3.9453125 C7.13020833 5.96354167 7.06510417 7.98177083 7 10 C5.35 10.33 3.7 10.66 2 11 C-0.67927341 6.98108988 -0.15601248 4.75838077 0 0 Z " fill="#F0EEF2" transform="translate(103,119)"/>
<path d="M0 0 C2.375 -0.1875 2.375 -0.1875 5 0 C7.30441554 3.45662331 7.25860135 4.94857881 7 9 C6.67 9.66 6.34 10.32 6 11 C3.5625 10.625 3.5625 10.625 1 10 C-0.60725635 6.78548731 -0.05748185 3.56387464 0 0 Z " fill="#F6F5F7" transform="translate(190,119)"/>
<path d="M0 0 C1.67542976 0.28604898 3.34385343 0.61781233 5 1 C5 4.3 5 7.6 5 11 C1 12 1 12 -1 11 C-1.02688151 9.35425434 -1.04634123 7.70838587 -1.0625 6.0625 C-1.07410156 5.14597656 -1.08570313 4.22945313 -1.09765625 3.28515625 C-1 1 -1 1 0 0 Z " fill="#F4F3F6" transform="translate(255,119)"/>
<path d="M0 0 C1.65 0 3.3 0 5 0 C6.20272819 2.40545638 6.10071472 3.94996953 6.0625 6.625 C6.05347656 7.44226563 6.04445313 8.25953125 6.03515625 9.1015625 C6.02355469 9.72804687 6.01195312 10.35453125 6 11 C4.35 11 2.7 11 1 11 C-0.20272819 8.59454362 -0.10071472 7.05003047 -0.0625 4.375 C-0.05347656 3.55773437 -0.04445312 2.74046875 -0.03515625 1.8984375 C-0.02355469 1.27195312 -0.01195312 0.64546875 0 0 Z " fill="#FAFAFB" transform="translate(44,119)"/>
<path d="M0 0 C1.4540625 0.0309375 1.4540625 0.0309375 2.9375 0.0625 C2.96439216 1.54156892 2.98384621 3.02077483 3 4.5 C3.01160156 5.32371094 3.02320312 6.14742187 3.03515625 6.99609375 C2.9375 9.0625 2.9375 9.0625 1.9375 10.0625 C0.27132885 10.10313832 -1.39638095 10.105221 -3.0625 10.0625 C-2.7325 9.4025 -2.4025 8.7425 -2.0625 8.0625 C-1.0725 8.0625 -0.0825 8.0625 0.9375 8.0625 C-0.3825 7.7325 -1.7025 7.4025 -3.0625 7.0625 C-3.44383299 5.0710944 -3.77575582 3.06970923 -4.0625 1.0625 C-3.0625 0.0625 -3.0625 0.0625 0 0 Z " fill="#4C3368" transform="translate(71.0625,148.9375)"/>
<path d="M0 0 C1.4540625 0.0309375 1.4540625 0.0309375 2.9375 0.0625 C2.9375 2.3725 2.9375 4.6825 2.9375 7.0625 C0.0625 7.1875 0.0625 7.1875 -3.0625 7.0625 C-3.7225 6.4025 -4.3825 5.7425 -5.0625 5.0625 C-4.45789299 1.07209375 -4.2025713 0.08576676 0 0 Z " fill="#9C8FAC" transform="translate(215.0625,148.9375)"/>
<path d="M0 0 C0.33 0.99 0.66 1.98 1 3 C2.65 3 4.3 3 6 3 C7.125 7.75 7.125 7.75 6 10 C4.02 10 2.04 10 0 10 C0 6.7 0 3.4 0 0 Z " fill="#5F4978" transform="translate(221,146)"/>
<path d="M0 0 C0.99 1.485 0.99 1.485 2 3 C4.56282742 3.72965366 4.56282742 3.72965366 7 4 C7 5.65 7 7.3 7 9 C2.25 10 2.25 10 0 10 C0 6.7 0 3.4 0 0 Z " fill="#8B7A9D" transform="translate(119,146)"/>
<path d="M0 0 C4.875 0.875 4.875 0.875 6 2 C6.04080783 3.99958364 6.04254356 6.00045254 6 8 C4.02 8 2.04 8 0 8 C0 5.36 0 2.72 0 0 Z " fill="#F0EEF2" transform="translate(23,113)"/>
<path d="M0 0 C2.5 0.125 2.5 0.125 3.5 1.125 C3.625 3.625 3.625 3.625 3.5 6.125 C2.5 7.125 2.5 7.125 -0.0625 7.1875 C-1.2690625 7.1565625 -1.2690625 7.1565625 -2.5 7.125 C-2.88133299 5.1335944 -3.21325582 3.13220923 -3.5 1.125 C-2.5 0.125 -2.5 0.125 0 0 Z " fill="#7A688F" transform="translate(194.5,148.875)"/>
<path d="M0 0 C2.625 0.375 2.625 0.375 5 1 C5.625 2.875 5.625 2.875 6 5 C5.34 5.66 4.68 6.32 4 7 C1.375 6.625 1.375 6.625 -1 6 C-1.625 4.125 -1.625 4.125 -2 2 C-1.34 1.34 -0.68 0.68 0 0 Z " fill="#A093AF" transform="translate(91,149)"/>
<path d="M0 0 C1.66611905 -0.042721 3.33382885 -0.04063832 5 0 C6 1 6 1 6.125 3.5 C6 6 6 6 5 7 C3.33382885 7.04063832 1.66611905 7.042721 0 7 C-1.125 2.25 -1.125 2.25 0 0 Z " fill="#A093AF" transform="translate(163,149)"/>
<path d="M0 0 C1.65 0 3.3 0 5 0 C5.33 0.66 5.66 1.32 6 2 C4.68 2 3.36 2 2 2 C3.32 2.66 4.64 3.32 6 4 C5.67 4.99 5.34 5.98 5 7 C3.35 7 1.7 7 0 7 C0 4.69 0 2.38 0 0 Z " fill="#7A688F" transform="translate(138,149)"/>
<path d="M0 0 C0.33 0.66 0.66 1.32 1 2 C2.32 2 3.64 2 5 2 C5.33 1.34 5.66 0.68 6 0 C7 3 7 3 6 6 C4.33388095 6.042721 2.66617115 6.04063832 1 6 C0 5 0 5 -0.0625 2.4375 C-0.041875 1.633125 -0.02125 0.82875 0 0 Z " fill="#77648C" transform="translate(129,150)"/>
<path d="M0 0 C0.66 0 1.32 0 2 0 C3.2380014 3.57644848 2.74926071 6.33694766 2 10 C1.34 10 0.68 10 0 10 C-1.125 3.375 -1.125 3.375 0 0 Z " fill="#76638B" transform="translate(157,146)"/>
<path d="M0 0 C1.98 0.495 1.98 0.495 4 1 C3.67 2.32 3.34 3.64 3 5 C1.68 4.67 0.36 4.34 -1 4 C-0.67 2.68 -0.34 1.36 0 0 Z " fill="#F6F5F8" transform="translate(69,150)"/>
<path d="M0 0 C0.33 0.99 0.66 1.98 1 3 C1.66 3.33 2.32 3.66 3 4 C2.67 5.98 2.34 7.96 2 10 C1.34 10 0.68 10 0 10 C-1.125 3.375 -1.125 3.375 0 0 Z " fill="#725F88" transform="translate(147,146)"/>
<path d="M0 0 C0.99 0 1.98 0 3 0 C3 1.65 3 3.3 3 5 C1.68 4.67 0.36 4.34 -1 4 C-0.67 2.68 -0.34 1.36 0 0 Z " fill="#FDFDFD" transform="translate(223,150)"/>
<path d="M0 0 C1.65 0.33 3.3 0.66 5 1 C5 1.66 5 2.32 5 3 C3.02 3.33 1.04 3.66 -1 4 C-0.67 2.68 -0.34 1.36 0 0 Z " fill="#DEDAE3" transform="translate(233,119)"/>
<path d="M0 0 C1.98 0 3.96 0 6 0 C5.67 0.99 5.34 1.98 5 3 C3.35 3 1.7 3 0 3 C0 2.01 0 1.02 0 0 Z " fill="#A89CB5" transform="translate(192,153)"/>
</svg>
